<?xml version="1.0" standalone="no"?>
<!DOCTYPE svg PUBLIC "-//W3C//DTD SVG 20010904//EN"
 "http://www.w3.org/TR/2001/REC-SVG-20010904/DTD/svg10.dtd">
<svg version="1.0" xmlns="http://www.w3.org/2000/svg"
 width="1378.000000pt" height="1379.000000pt" viewBox="0 0 1378.000000 1379.000000"
 preserveAspectRatio="xMidYMid meet">
<metadata>
Created by potrace 1.16, written by Peter Selinger 2001-2019
</metadata>
<g transform="translate(0.000000,1379.000000) scale(0.100000,-0.100000)"
fill="#000000" stroke="none">
<path d="M0 13350 c1 -285 5 -442 11 -446 6 -3 8 -17 5 -29 -7 -28 9 -42 29
-25 12 10 15 9 15 -3 0 -8 -7 -17 -15 -20 -8 -4 -21 -23 -30 -43 -13 -33 -15
-686 -15 -6190 0 -3633 4 -6155 9 -6158 5 -3 11 15 13 40 2 25 0 48 -5 51 -5
3 -6 12 -2 21 14 38 20 346 17 897 0 160 0 344 2 410 1 66 0 150 -4 188 -3 37
-2 67 2 67 5 0 8 33 8 74 0 54 4 75 14 79 8 3 17 24 21 46 7 41 11 45 52 41
17 -1 20 3 16 18 -5 23 38 75 45 54 2 -7 8 -12 14 -12 5 0 6 9 3 20 -4 13 -1
22 9 26 17 7 49 -13 41 -25 -2 -4 5 -37 15 -72 11 -35 20 -78 20 -95 0 -16 4
-34 9 -40 5 -5 11 -40 12 -79 1 -38 5 -83 10 -100 4 -16 13 -75 19 -130 6 -55
15 -127 20 -160 5 -33 18 -125 30 -205 12 -80 26 -158 32 -175 19 -58 35 -133
37 -178 1 -10 6 -15 11 -12 6 4 7 13 1 24 -8 13 -3 23 20 42 22 18 30 35 35
71 4 29 12 48 19 48 18 0 36 81 35 152 -1 31 3 59 7 61 5 3 8 31 6 61 -1 31 1
56 5 56 4 0 7 24 8 53 0 53 50 227 65 227 4 0 10 9 14 20 5 15 13 19 37 16 32
-4 48 -20 48 -48 0 -10 4 -18 8 -18 8 0 65 -73 89 -113 6 -11 15 -22 20 -26 5
-3 20 -22 33 -41 39 -56 42 -59 67 -47 14 6 23 19 23 34 0 13 6 23 14 23 8 0
14 6 13 12 0 7 1 29 2 48 1 27 4 31 11 20 8 -12 10 -11 10 8 0 33 51 142 67
142 7 0 13 7 13 15 0 22 73 91 103 99 20 5 32 1 47 -14 11 -11 20 -24 20 -29
0 -5 15 -42 34 -83 31 -65 35 -85 40 -183 7 -130 14 -201 22 -235 4 -14 8 -38
10 -53 2 -16 11 -38 19 -50 8 -12 15 -30 15 -39 0 -26 49 -96 71 -103 11 -4
24 -15 29 -25 6 -11 17 -17 25 -14 8 4 12 10 9 15 -3 5 0 9 5 9 6 0 11 -12 11
-27 0 -25 1 -26 20 -8 26 23 34 53 20 70 -9 11 -7 16 9 25 16 8 21 21 21 50 0
31 4 40 18 41 10 0 12 3 4 6 -21 8 -2 23 31 23 21 0 36 -7 45 -20 7 -11 20
-20 30 -21 14 0 14 -2 -3 -9 -18 -8 -18 -9 5 -10 23 -1 23 -2 5 -10 -17 -8
-16 -9 10 -11 24 -1 26 -3 8 -6 l-23 -4 23 -42 c13 -23 22 -47 20 -53 -2 -6 3
-17 12 -24 8 -7 15 -22 15 -34 0 -15 9 -25 29 -33 27 -10 30 -9 40 16 18 48
25 76 22 91 -2 10 2 9 12 -4 14 -18 14 -18 20 5 4 14 4 35 0 47 -3 13 -2 22 3
21 5 -1 21 3 37 9 27 11 36 35 17 47 -6 3 -6 13 -1 23 11 21 31 99 36 134 1
14 6 31 9 37 4 6 9 66 12 133 6 131 17 186 41 205 10 7 13 21 10 33 -5 21 -5
21 14 5 15 -14 22 -15 33 -6 10 8 16 9 21 1 3 -6 11 -8 16 -5 5 4 13 -5 18
-18 6 -14 15 -27 21 -29 5 -1 15 -32 21 -68 5 -35 15 -68 21 -71 6 -4 8 -14 5
-23 -4 -9 -2 -16 4 -16 6 0 8 -4 5 -8 -2 -4 1 -21 9 -37 22 -49 28 -69 26 -81
-1 -7 5 -14 14 -18 10 -4 15 1 15 16 0 21 0 21 25 -2 23 -21 23 -24 7 -36 -9
-7 -21 -10 -27 -6 -5 3 -2 -4 8 -15 10 -12 17 -27 16 -35 -4 -31 2 -39 29 -38
40 3 45 1 35 -12 -19 -25 -23 -47 -8 -41 8 3 12 9 9 14 -3 5 2 12 11 15 10 4
13 13 10 25 -4 11 -2 19 6 19 9 0 9 3 -1 15 -12 15 -6 35 11 35 12 0 12 -43 0
-56 -6 -5 -4 -16 4 -28 12 -16 17 -17 30 -6 8 7 15 18 15 25 0 22 76 90 102
91 23 2 27 -3 32 -38 5 -32 3 -43 -11 -53 -55 -39 -89 -72 -86 -82 5 -14 -13
-26 -46 -29 -32 -4 -41 -20 -41 -71 0 -24 -4 -43 -10 -43 -5 0 -10 9 -10 20 0
11 -4 20 -10 20 -16 0 -41 -46 -35 -63 8 -20 -12 -32 -30 -17 -12 10 -15 8
-15 -12 0 -13 -8 -30 -18 -38 -20 -17 -52 -22 -52 -9 0 27 -82 -16 -138 -71
-23 -23 -45 -39 -50 -36 -15 9 -64 -21 -112 -69 -25 -25 -50 -45 -57 -45 -7 0
-13 -3 -13 -8 0 -4 -18 -18 -40 -32 -22 -14 -40 -28 -40 -32 0 -5 -6 -8 -13
-8 -7 0 -38 -27 -70 -60 -31 -33 -69 -66 -84 -72 -15 -7 -31 -17 -35 -22 -8
-12 -48 -19 -48 -8 0 4 -11 7 -24 7 -13 0 -22 -3 -20 -6 2 -4 -5 -17 -16 -29
-11 -13 -20 -29 -20 -36 0 -13 -34 -76 -57 -104 -71 -90 -158 -194 -198 -235
-16 -17 -42 -47 -56 -66 -15 -18 -55 -63 -89 -99 -58 -60 -140 -162 -140 -175
0 -3 239 -5 530 -5 292 0 530 3 530 6 0 18 -44 103 -56 108 -8 3 -14 14 -14
24 0 10 -8 27 -18 38 -34 37 -51 72 -54 110 -3 33 1 40 26 53 22 12 30 13 33
4 3 -7 9 -13 14 -13 13 0 98 -87 123 -125 10 -16 32 -40 47 -53 24 -20 29 -32
29 -70 0 -26 7 -55 14 -65 13 -16 185 -17 3366 -17 2803 0 3351 2 3341 13 -12
16 -5 27 17 27 9 0 13 -3 9 -6 -11 -11 21 -34 47 -34 16 0 26 6 26 15 0 8 -8
15 -18 15 -11 0 -27 9 -36 19 -11 12 -26 17 -39 14 l-22 -5 23 20 c22 20 31
39 12 27 -5 -3 -10 -2 -10 4 0 5 -11 9 -24 8 -14 -1 -25 2 -25 8 -1 5 6 10 15
10 8 0 24 11 34 25 10 14 22 21 27 17 4 -5 -1 -15 -11 -23 -16 -11 -17 -16 -6
-29 7 -8 19 -15 26 -15 8 0 14 -4 14 -9 0 -12 32 -8 48 6 18 17 15 25 -8 18
-22 -7 -28 10 -8 19 7 4 -3 4 -22 1 -34 -5 -34 -5 -13 10 13 9 28 15 35 14 25
-4 69 14 79 32 8 16 6 19 -10 19 -11 0 -22 -4 -25 -9 -3 -5 -15 -7 -26 -4 -11
3 -20 1 -20 -5 0 -5 -7 -13 -16 -16 -14 -5 -15 -4 -4 9 15 18 13 20 -17 29
-14 5 -23 3 -23 -3 0 -6 -11 -11 -25 -11 -24 0 -24 1 -7 18 9 11 20 17 23 16
4 -2 12 3 19 11 7 8 9 15 6 15 -15 0 30 38 49 42 22 4 51 51 34 56 -13 5 -40
-18 -33 -29 3 -5 -2 -9 -10 -9 -9 0 -16 -4 -16 -10 0 -5 -7 -10 -16 -10 -24 0
-11 23 22 39 16 8 23 16 16 19 -6 2 -12 8 -12 14 0 6 7 7 16 4 9 -4 13 -2 8 5
-9 16 15 28 56 30 24 1 28 3 13 6 -13 2 -23 9 -23 14 0 5 -11 7 -24 3 -13 -3
-27 -1 -30 5 -4 6 -21 11 -39 11 -24 0 -28 3 -19 12 19 19 14 28 -17 28 -33 0
-49 16 -32 33 6 6 11 15 11 20 0 11 -41 -2 -58 -19 -14 -14 -26 -18 -50 -15
-7 1 -19 -5 -27 -13 -8 -8 -20 -16 -27 -19 -10 -4 -11 -7 0 -18 9 -10 12 -10
12 0 0 7 4 10 9 6 5 -3 12 -1 16 5 3 5 20 10 36 10 18 0 28 -4 24 -10 -3 -5
-15 -10 -27 -10 -13 0 -18 -5 -15 -14 8 -20 -35 -30 -46 -11 -10 18 -51 20
-69 2 -14 -13 -82 -17 -94 -5 -9 10 -58 10 -67 1 -4 -3 0 -14 8 -23 14 -16 14
-18 -3 -22 -10 -3 -27 1 -37 8 -10 8 -13 14 -7 14 7 0 12 5 12 11 0 7 -11 8
-32 3 -56 -12 -63 -11 -60 12 2 12 -4 24 -13 27 -8 4 -15 13 -15 21 0 10 -8
13 -25 10 -14 -2 -25 0 -25 6 0 5 7 10 15 10 9 0 12 6 9 15 -4 8 -1 15 5 15 6
0 11 4 11 10 0 5 -7 7 -15 4 -9 -4 -15 0 -15 9 0 9 9 19 20 22 11 4 20 15 20
27 0 14 5 18 16 14 9 -3 20 -6 25 -6 5 0 9 -4 9 -10 0 -5 -8 -10 -19 -10 -20
0 -36 -36 -20 -46 12 -7 41 15 34 27 -3 4 8 15 25 24 36 19 39 29 5 21 -18 -5
-25 -2 -25 9 0 10 -10 15 -29 15 -17 0 -32 4 -36 10 -9 14 18 50 37 50 21 0
24 16 6 23 -7 2 -10 8 -6 12 4 4 14 3 21 -3 8 -7 17 -9 20 -5 4 3 7 1 7 -5 0
-18 30 -14 37 4 3 9 0 20 -8 25 -10 6 -4 12 24 24 34 14 53 38 25 32 -6 -1
-14 6 -16 17 -2 11 0 16 7 12 6 -4 11 -1 11 6 0 16 37 41 50 33 6 -4 10 1 10
10 0 9 6 15 12 13 7 -3 19 1 26 8 14 15 41 9 58 -13 10 -11 13 -11 17 1 4 9 0
22 -8 30 -19 18 -82 18 -89 0 -8 -20 -26 -17 -26 5 0 40 32 49 181 55 70 2 91
7 116 26 17 12 36 19 42 16 6 -4 11 -2 11 3 0 6 -7 11 -15 11 -8 0 -15 8 -16
18 0 9 -3 12 -5 5 -3 -7 -12 -9 -20 -6 -8 3 -14 2 -13 -3 4 -22 -2 -34 -16
-34 -8 0 -15 7 -15 16 0 8 5 12 11 8 7 -4 9 0 5 14 -7 21 17 38 36 26 6 -4 18
2 26 12 14 18 14 18 8 0 -5 -14 -2 -17 10 -12 8 3 20 6 25 6 6 0 7 5 4 10 -3
6 1 10 9 10 9 0 16 5 16 11 0 5 4 8 8 5 4 -2 14 0 22 5 11 8 6 9 -17 6 -18 -2
-33 -2 -33 0 0 12 36 38 54 40 12 0 32 4 46 8 24 6 24 6 6 -9 -18 -14 -18 -16
-3 -16 22 0 33 28 18 43 -9 9 -16 9 -31 -1 -27 -16 -25 -1 2 22 17 15 23 16
26 6 3 -8 9 -5 18 11 12 23 27 28 94 30 21 0 19 3 -14 15 -21 7 -42 12 -46 9
-4 -2 -16 5 -26 17 -19 20 -19 21 6 13 22 -7 23 -6 11 9 -7 9 -9 16 -3 16 14
0 33 -26 24 -34 -4 -5 4 -6 18 -4 18 2 28 12 35 34 6 17 14 31 18 31 33 2 48
13 43 31 -5 14 1 22 19 30 14 6 25 18 25 26 0 7 6 19 14 25 15 13 18 54 4 45
-4 -3 -8 -1 -8 5 0 5 -8 12 -17 15 -10 3 -1 3 20 0 26 -3 37 -1 38 8 1 7 3 20
4 28 1 8 3 21 4 28 0 6 6 12 12 12 6 0 8 -7 5 -16 -6 -15 -4 -15 10 -3 10 8
20 13 23 12 3 -1 5 5 3 13 -2 8 5 14 15 14 15 0 16 2 3 10 -12 8 -12 10 5 10
16 0 17 2 5 10 -11 7 -9 11 14 19 21 9 26 16 21 30 -4 14 0 23 14 31 12 6 18
16 15 25 -5 11 -2 13 10 9 10 -4 16 -1 16 9 0 9 7 22 15 31 24 23 34 60 23 80
-9 15 -7 17 10 12 15 -5 21 -1 26 18 3 13 3 31 0 39 -3 8 -1 18 5 22 6 3 11
-1 11 -10 0 -13 2 -14 14 -3 18 17 3 35 -26 33 -15 -1 -22 -8 -20 -18 2 -11
-2 -15 -12 -11 -23 9 3 46 26 38 13 -4 18 0 18 13 0 15 2 16 10 3 5 -8 13 -11
17 -6 4 4 -2 16 -14 26 -13 10 -23 21 -23 24 0 9 24 2 33 -9 6 -6 10 -6 14 3
2 6 11 12 19 12 9 0 14 12 14 36 0 21 4 33 10 29 6 -3 10 -1 10 5 0 6 4 9 9 5
6 -3 6 6 1 25 -7 23 -6 30 3 27 7 -2 11 -12 11 -21 -1 -9 2 -16 7 -16 13 0 31
49 23 61 -7 13 27 53 35 41 3 -4 14 0 24 10 9 10 13 18 7 18 -5 0 -10 7 -10
15 0 9 6 12 15 9 11 -5 13 -2 9 10 -3 9 -1 16 5 16 6 0 11 7 11 15 0 8 4 15 9
15 5 0 11 10 13 23 2 12 8 22 13 21 16 -1 46 43 39 59 -4 10 1 15 13 14 13 -2
19 6 21 27 2 18 11 30 24 34 13 3 18 11 15 23 -4 13 2 19 23 24 28 6 45 29 35
45 -3 4 15 29 40 55 25 25 45 51 45 56 0 11 14 30 48 64 12 12 22 26 22 30 0
5 7 15 15 24 38 40 94 115 90 122 -3 4 11 24 30 45 23 24 35 47 34 63 -2 24
-2 24 -6 4 -2 -13 -11 -23 -19 -23 -8 0 -14 -7 -14 -15 0 -10 -11 -15 -32 -16
-18 0 -27 -3 -20 -6 13 -5 17 -24 5 -22 -21 3 -24 -3 -12 -18 8 -10 9 -14 2
-10 -19 12 -106 -16 -111 -35 -2 -10 -18 -20 -38 -24 -28 -5 -34 -11 -34 -33
0 -20 -2 -23 -10 -11 -8 13 -11 12 -22 -3 -8 -10 -18 -18 -23 -17 -23 5 -34
-1 -29 -15 4 -8 1 -15 -5 -15 -10 0 -15 14 -12 34 1 5 -3 13 -10 17 -9 5 -8
12 5 25 13 13 14 19 5 24 -6 5 -9 15 -6 24 4 9 3 16 -2 16 -4 0 -12 -17 -17
-37 -9 -35 -12 -38 -42 -35 -22 1 -31 -1 -27 -9 4 -5 10 -8 13 -5 3 3 11 1 18
-5 14 -11 10 -53 -7 -75 -4 -5 -6 -20 -2 -32 7 -27 -8 -28 -32 -2 -14 15 -22
17 -37 9 -14 -8 -17 -14 -9 -23 6 -7 8 -16 4 -19 -7 -7 0 -8 54 -10 17 -1 29
-5 26 -10 -3 -6 -7 -19 -8 -31 -4 -33 -4 -33 -21 -40 -11 -4 -15 -2 -11 8 3 8
1 16 -5 18 -7 3 -5 10 5 20 9 8 13 18 10 22 -11 11 -23 6 -23 -8 0 -8 -6 -17
-13 -20 -9 -5 -9 -7 0 -12 19 -8 16 -31 -5 -43 -15 -9 -15 -10 -1 -11 27 0 49
-43 39 -76 -7 -25 -16 -17 -11 10 4 19 -9 37 -21 30 -7 -5 -22 -8 -33 -9 -15
0 -21 -8 -22 -30 -2 -27 -2 -28 7 -7 5 12 14 22 19 22 8 0 41 -54 41 -66 0 -2
-14 -11 -31 -20 -25 -12 -33 -13 -39 -3 -5 6 -15 9 -25 6 -9 -4 -14 -11 -10
-16 3 -6 12 -8 19 -5 8 3 17 1 21 -5 3 -6 0 -11 -7 -12 -7 0 -4 -4 7 -9 18 -8
18 -9 2 -9 -10 -1 -15 -5 -12 -11 3 -5 1 -10 -6 -10 -8 0 -8 -4 1 -15 9 -11 9
-15 1 -15 -7 0 -9 -4 -6 -10 3 -5 2 -10 -4 -10 -6 0 -7 -7 -4 -17 4 -11 3 -14
-6 -9 -15 10 -61 -33 -54 -51 3 -8 -3 -13 -16 -13 -12 0 -24 7 -27 15 -8 19
-24 20 -24 1 0 -8 -11 -17 -24 -20 -21 -5 -23 -10 -17 -38 6 -25 12 -32 27
-30 18 2 18 2 1 -9 -13 -7 -27 -8 -49 0 -17 6 -34 8 -39 5 -5 -3 -9 0 -9 5 0
6 -5 11 -11 11 -8 0 -8 -5 1 -15 7 -8 17 -12 23 -8 6 4 8 -2 5 -15 -4 -12 -2
-22 3 -22 5 0 9 -5 9 -11 0 -5 -4 -8 -8 -5 -5 3 -21 -6 -37 -20 -26 -22 -26
-24 -7 -24 l20 0 -21 -38 c-29 -52 -57 -92 -80 -119 -10 -12 -16 -26 -13 -32
6 -8 -1 -26 -22 -60 -1 -3 -12 5 -25 16 -18 17 -67 38 -67 29 0 -9 39 -46 49
-46 6 0 11 -4 11 -8 0 -12 -35 -43 -46 -41 -5 1 -17 1 -28 0 -15 -1 -16 -4 -6
-16 8 -9 9 -15 2 -15 -6 0 -13 4 -16 9 -7 11 -56 2 -56 -10 0 -6 7 -12 15 -15
8 -4 15 -10 15 -16 0 -5 -5 -6 -10 -3 -6 3 -13 -1 -16 -10 -4 -10 -13 -13 -25
-10 -20 7 -26 -9 -9 -20 6 -4 8 -11 5 -16 -4 -5 -12 -3 -20 4 -11 10 -11 15 1
34 18 28 18 33 -1 33 -8 0 -15 -9 -15 -20 0 -20 -24 -28 -34 -11 -12 19 -146
-27 -146 -50 0 -5 5 -9 10 -9 6 0 10 -4 10 -10 0 -5 -6 -7 -14 -4 -8 3 -16 -4
-20 -18 -5 -14 -9 -18 -13 -10 -3 7 1 19 7 27 10 12 9 20 -4 40 -17 25 -36 33
-36 15 0 -5 5 -10 11 -10 6 0 9 -5 7 -12 -6 -18 -44 -16 -57 4 -9 14 -8 18 3
18 8 0 18 5 22 12 5 8 2 9 -10 5 -10 -4 -15 -3 -11 3 3 6 12 10 20 10 13 0 30
29 17 31 -4 0 -17 2 -29 3 -15 2 -23 -4 -27 -19 -3 -12 -16 -27 -28 -33 -14
-6 -17 -11 -8 -11 10 -1 7 -6 -8 -17 -31 -21 -28 -31 8 -26 16 2 27 8 24 13
-3 5 2 9 11 9 12 0 15 -5 11 -16 -3 -9 -6 -20 -6 -25 0 -5 -11 -7 -25 -3 -17
4 -25 2 -25 -7 0 -12 -2 -12 -9 0 -7 11 -11 10 -20 -5 -10 -18 -10 -18 -11 4
0 12 -4 22 -9 22 -19 0 -41 -12 -36 -21 3 -4 3 -19 -1 -33 -6 -24 -6 -24 -25
-5 -10 10 -29 19 -41 20 -23 0 -22 1 2 12 26 12 51 33 50 42 -1 27 4 35 25 41
31 8 28 26 -6 31 -39 5 -49 11 -43 26 3 8 -2 17 -10 20 -10 4 -13 1 -9 -9 3
-9 -2 -14 -16 -14 -18 0 -19 -3 -11 -25 5 -14 6 -25 1 -25 -5 0 -11 -9 -14
-19 -3 -12 -13 -19 -28 -19 -13 0 -44 -2 -69 -5 -25 -2 -37 -3 -27 0 18 5 24
22 7 24 -5 1 -14 2 -19 3 -5 0 -13 4 -17 9 -4 4 -14 7 -22 7 -11 0 -12 -3 -3
-14 10 -11 8 -17 -6 -25 -17 -9 -17 -10 -1 -16 9 -4 22 -4 28 0 5 3 10 1 10
-6 0 -8 -13 -10 -45 -6 -33 5 -48 3 -60 -9 -9 -10 -23 -13 -36 -9 -12 4 -36 7
-55 7 -36 0 -40 7 -23 39 9 18 8 20 -13 18 -13 -2 -28 0 -34 3 -14 9 -85 -2
-79 -13 3 -4 -3 -12 -12 -18 -17 -9 -17 -10 -1 -16 31 -12 8 -25 -40 -24 -26
1 -37 4 -25 6 12 2 26 10 32 17 9 10 0 13 -46 12 -43 -1 -57 2 -55 12 1 8 -2
11 -7 8 -5 -3 -14 1 -21 9 -17 20 -40 19 -41 -2 0 -15 -2 -15 -8 2 -5 11 -7
23 -4 28 2 4 -1 7 -8 7 -6 0 -17 7 -23 15 -6 8 -26 18 -45 21 -30 6 -32 5 -23
-12 10 -20 6 -44 -8 -44 -4 0 -6 9 -3 19 3 10 -1 30 -9 42 -14 27 -15 30 -17
78 -1 30 -3 33 -26 29 -17 -4 -25 -1 -25 8 0 8 -5 14 -11 14 -5 0 -7 5 -4 10
6 9 -17 14 -53 13 -9 -1 -6 6 7 18 27 25 26 29 -4 29 -20 0 -25 -5 -25 -25 0
-22 -4 -25 -34 -25 -19 0 -38 5 -41 10 -4 6 -21 17 -38 24 -18 8 -26 15 -19
15 15 1 16 31 1 31 -5 0 -7 -6 -4 -12 4 -7 -10 6 -32 28 -21 23 -49 44 -63 45
-17 3 -26 11 -28 27 -2 12 -7 20 -12 17 -4 -3 -13 2 -20 10 -11 13 -10 14 4 9
11 -4 16 -1 16 10 0 9 -5 16 -11 16 -8 0 -10 17 -6 55 5 49 3 55 -13 55 -10 0
-21 -6 -24 -12 -3 -7 -4 0 -2 17 3 19 -2 33 -12 41 -10 7 -13 16 -9 20 4 5 13
2 18 -6 8 -12 10 -10 6 8 -6 25 5 29 23 7 8 -10 9 -15 2 -15 -6 0 -9 -7 -6
-15 4 -8 10 -15 15 -15 4 0 6 7 3 15 -4 8 -1 15 5 15 6 0 11 14 11 31 0 23 4
30 14 26 10 -4 13 -1 9 9 -3 8 1 14 8 14 9 0 15 13 16 36 1 19 9 47 18 60 13
21 14 28 4 42 -11 14 -11 15 1 5 8 -7 23 -13 34 -13 20 0 20 1 -2 16 -12 8
-22 22 -22 30 0 8 -9 22 -20 31 -25 22 -8 46 26 37 15 -4 24 -2 24 6 0 6 -4 9
-9 5 -5 -3 -12 -1 -16 5 -3 5 1 10 9 10 9 0 16 7 16 15 0 17 -16 20 -25 5 -7
-12 -25 -4 -25 11 0 5 13 9 30 9 16 0 33 7 38 16 6 11 16 14 31 9 12 -4 19
-11 15 -18 -5 -8 -2 -8 7 1 20 19 38 15 32 -8 -6 -22 12 -28 20 -7 3 7 6 5 6
-5 1 -10 9 -18 18 -18 13 0 14 3 5 12 -7 7 -12 21 -11 33 0 19 1 19 11 -3 12
-23 36 -23 67 2 11 8 13 8 8 0 -7 -12 26 -48 36 -38 3 3 22 6 42 6 35 0 36 1
20 18 -16 18 -14 18 35 -1 43 -16 51 -17 47 -5 -4 10 -1 13 9 9 7 -3 14 -13
14 -23 0 -10 7 -23 16 -31 13 -11 14 -9 9 14 -6 21 -4 25 12 21 13 -4 21 3 30
26 7 17 21 34 32 37 28 7 27 21 -1 19 -13 -1 -28 -11 -35 -26 -7 -14 -13 -19
-13 -12 0 9 -5 10 -19 2 -28 -15 -35 -12 -20 6 12 15 11 16 -8 10 -13 -4 -27
-5 -33 -1 -15 9 11 33 32 27 9 -2 26 5 38 16 l21 19 -26 17 c-28 18 -27 44 1
77 8 8 14 28 14 43 0 19 7 29 26 36 14 6 30 7 35 4 13 -7 -9 -35 -25 -32 -6 2
-13 -2 -16 -7 -3 -6 7 -11 23 -13 15 -2 25 -7 22 -12 -4 -7 17 -7 35 0 3 1 8
2 13 1 4 0 7 4 7 9 0 6 -4 10 -9 10 -5 0 -11 6 -14 13 -3 9 7 13 34 13 22 1
39 -2 39 -7 0 -5 6 -6 14 -3 8 3 16 -2 19 -13 4 -15 5 -16 6 -1 1 12 12 18 36
20 20 2 34 8 33 13 -2 6 -7 9 -12 7 -4 -1 -14 2 -20 8 -7 5 -17 6 -21 2 -5 -4
-5 -1 -1 6 4 7 17 10 32 6 13 -3 24 -2 24 3 0 5 9 9 20 9 22 0 27 -12 7 -19
-6 -3 -2 -6 10 -6 16 -1 21 3 17 14 -4 10 0 15 15 15 12 0 21 5 21 10 0 6 4
10 10 10 5 0 6 -7 3 -17 -5 -12 -3 -14 7 -8 10 6 12 4 7 -9 -5 -12 -3 -15 6
-9 6 4 37 9 67 10 69 3 100 12 100 29 0 8 4 14 9 14 4 0 6 -10 4 -23 -5 -26
-51 -50 -79 -41 -18 5 -18 5 0 -10 22 -18 36 -20 36 -6 0 14 27 1 34 -16 3 -9
-1 -13 -14 -11 -10 1 -18 -2 -17 -8 1 -5 5 -9 9 -8 5 2 8 -4 8 -11 0 -12 -6
-13 -31 -4 -55 19 -61 -16 -7 -39 23 -10 30 -10 43 3 8 9 15 22 15 30 0 8 4
13 9 9 5 -3 12 -1 16 5 9 15 27 1 21 -16 -3 -7 0 -16 6 -20 7 -4 8 -3 4 4 -4
7 -1 12 8 12 9 0 16 5 16 10 0 6 9 10 21 10 12 0 17 4 14 11 -4 6 2 13 14 16
27 7 27 21 -1 32 l-22 8 24 6 c13 3 30 1 37 -5 10 -8 13 -6 13 10 0 28 27 36
33 10 3 -11 10 -17 17 -13 8 5 8 11 -1 21 -6 8 -8 15 -3 15 39 5 64 19 64 34
0 17 42 27 52 12 5 -7 6 1 2 17 -6 25 -4 28 10 23 24 -9 46 2 46 25 0 11 4 16
11 12 7 -4 10 3 9 17 -4 40 -1 42 25 25 30 -20 39 -20 32 -1 -4 8 -1 17 5 21
7 4 6 9 -3 15 -10 6 -11 9 -1 9 6 0 12 9 12 19 0 11 9 23 20 26 11 4 18 11 14
16 -3 6 -3 22 1 37 4 18 9 22 14 13 6 -9 15 1 30 31 11 24 21 39 21 34 0 -5 7
-3 15 4 8 7 12 16 9 21 -3 5 0 9 6 9 7 0 10 6 7 13 -3 7 4 19 14 25 10 7 19
19 19 28 0 8 4 13 9 10 5 -3 11 1 14 8 4 9 -1 17 -11 19 -13 4 -13 5 -2 6 8 0
26 21 39 46 15 28 33 48 47 51 13 4 24 12 24 20 0 13 5 16 39 18 8 1 15 10 17
21 2 11 8 21 13 23 6 2 11 17 11 34 0 29 1 30 38 24 23 -4 32 -3 23 2 -10 7
-7 12 15 21 20 7 23 10 9 10 -54 -3 -62 13 -15 30 17 5 30 17 30 26 0 12 6 15
20 10 14 -5 20 -2 20 10 0 11 7 16 22 14 13 -2 29 0 35 4 9 5 11 3 7 -6 -9
-23 16 -31 31 -11 9 11 14 14 15 7 0 -7 8 -13 17 -13 13 0 14 -3 5 -12 -16
-16 -15 -48 2 -48 9 0 12 7 9 23 -4 17 -2 19 5 7 6 -8 8 -27 5 -44 -4 -21 -3
-27 5 -22 16 10 15 -17 0 -32 -9 -9 -9 -12 2 -12 10 0 10 -4 -3 -17 -9 -11
-13 -28 -10 -45 3 -15 2 -36 -2 -45 -4 -10 -7 -32 -6 -50 2 -23 -2 -33 -16
-36 -14 -4 -13 -5 5 -6 13 0 20 -5 17 -11 -4 -6 -9 -8 -13 -6 -4 2 -7 -7 -7
-20 0 -13 4 -24 8 -24 5 0 6 -14 2 -30 -5 -23 -3 -30 8 -30 23 0 26 -35 6 -61
-23 -29 -24 -39 -4 -39 8 0 15 5 15 10 0 6 5 10 11 10 5 0 7 -5 3 -12 -4 -7
-3 -8 4 -4 7 4 10 19 7 34 l-5 27 12 -25 c7 -14 17 -28 23 -32 18 -13 27 9 14
33 -7 13 -13 33 -14 43 -1 11 -7 22 -13 24 -7 2 -12 11 -12 19 0 13 -3 13 -16
2 -15 -12 -15 -10 0 24 8 21 13 44 10 51 -8 21 25 66 47 66 11 0 19 4 19 9 0
4 -12 7 -27 5 l-28 -4 28 13 c15 7 24 17 20 21 -4 4 1 15 12 23 14 11 16 17 7
20 -8 3 -10 9 -3 16 5 7 10 15 10 20 1 4 1 10 2 15 0 4 5 -2 10 -13 7 -16 8
-12 6 16 -2 27 1 35 10 32 7 -3 13 0 13 6 0 6 -4 11 -9 11 -15 0 -22 33 -11
44 7 7 11 7 10 1 -6 -27 0 -37 13 -26 8 6 18 7 22 3 5 -4 5 -1 1 5 -4 7 -2 22
4 33 8 15 8 20 -2 20 -8 0 -6 5 5 11 9 5 22 7 28 3 7 -4 10 -1 7 7 -3 8 -11
13 -18 11 -11 -2 -11 0 0 13 11 13 11 18 1 25 -10 5 -10 9 -2 15 7 3 9 15 6
26 -4 11 -2 19 5 19 6 0 8 -5 4 -12 -5 -8 -2 -9 10 -5 10 4 27 7 37 7 12 0 17
4 14 11 -4 6 -10 8 -13 4 -6 -6 -32 50 -32 69 1 6 7 0 15 -14 13 -23 14 -23
15 -5 0 23 26 65 41 65 5 0 10 -8 10 -17 1 -10 4 -4 8 12 4 17 3 32 -1 33 -4
2 -8 12 -8 22 0 22 -16 35 -25 20 -3 -5 -10 -10 -16 -10 -5 0 -4 9 3 19 6 11
20 18 30 16 24 -5 23 17 -2 33 -11 7 -20 19 -20 27 0 19 -9 19 -32 -2 -17 -15
-18 -15 -18 1 0 9 5 14 10 11 6 -3 13 1 16 10 9 21 -24 46 -54 41 -21 -3 -23
0 -19 21 5 28 -30 60 -47 43 -16 -16 -28 -11 -21 9 4 14 0 20 -19 25 -19 5
-23 11 -19 27 5 18 3 20 -18 15 -13 -3 -18 -3 -11 0 9 4 10 9 2 19 -6 7 -10
17 -9 21 4 23 -3 34 -22 34 -11 0 -18 -4 -15 -9 3 -5 -1 -14 -9 -21 -18 -15
-19 -7 -4 22 8 16 8 23 -2 30 -9 5 -3 6 15 2 29 -7 30 -7 10 13 -10 11 -28 23
-39 27 -16 6 -17 9 -5 16 8 5 11 12 7 17 -5 4 -12 1 -17 -7 -6 -10 -3 -21 8
-33 16 -18 16 -19 -3 -16 -12 3 -21 14 -23 28 -3 18 -9 22 -27 19 -16 -4 -22
-1 -18 9 5 12 16 16 29 11 3 -2 10 5 16 15 14 26 -5 46 -30 31 -27 -16 -49 -6
-58 28 -5 17 -15 33 -23 36 -10 3 -11 0 -5 -9 7 -12 5 -12 -9 0 -9 7 -17 23
-17 35 0 16 -2 18 -9 7 -11 -17 -32 -5 -24 14 3 8 0 15 -6 15 -6 0 -10 6 -8
13 1 6 -6 11 -16 10 -13 -1 -17 4 -13 14 4 11 2 13 -9 9 -10 -3 -15 1 -15 13
0 22 -29 36 -44 21 -14 -14 -29 -13 -24 2 5 13 -16 29 -64 48 -27 12 -40 43
-35 85 1 15 -5 21 -23 23 -14 2 -32 6 -40 9 -8 3 -28 7 -45 7 -16 1 -36 5 -44
10 -10 7 -12 6 -6 -3 4 -7 -4 -5 -19 4 -14 10 -26 13 -26 7 0 -21 33 -35 85
-35 30 1 55 -3 55 -8 0 -4 10 -9 22 -11 31 -4 35 -28 5 -28 -14 0 -27 6 -30
13 -3 9 -15 6 -46 -10 -40 -21 -53 -19 -29 5 7 7 10 12 8 13 -42 8 -50 5 -44
-15 6 -19 5 -20 -11 -6 -16 14 -17 13 -11 -7 5 -16 2 -23 -14 -28 -11 -3 -20
-10 -20 -14 0 -18 15 -20 37 -6 13 9 23 11 23 5 0 -5 -9 -15 -20 -22 -11 -7
-20 -20 -19 -28 0 -10 2 -11 6 -2 2 6 9 12 14 12 14 0 45 -32 53 -55 6 -16 9
-17 17 -5 7 12 10 11 15 -7 4 -13 11 -23 16 -23 6 0 8 -7 4 -15 -3 -8 -1 -15
4 -15 6 0 10 5 10 10 0 16 13 12 40 -13 14 -13 40 -30 58 -38 28 -12 37 -26
33 -51 0 -5 4 -8 9 -8 6 0 10 6 10 13 0 6 6 1 13 -13 9 -17 20 -24 35 -23 12
2 22 -2 22 -7 0 -6 -4 -10 -10 -10 -20 0 -9 -29 13 -32 12 -2 21 -9 20 -16 -4
-15 9 -16 24 -1 8 8 13 8 17 0 4 -6 2 -11 -3 -11 -6 0 -11 -7 -11 -15 0 -9 6
-12 17 -8 9 4 14 2 11 -3 -7 -10 11 -29 30 -30 27 -2 32 -4 32 -15 0 -8 -5 -8
-15 1 -22 18 -20 -8 3 -33 17 -19 16 -20 -11 -13 -19 4 -26 3 -22 -4 3 -5 13
-10 21 -10 19 0 18 -19 -1 -26 -8 -4 -15 -11 -15 -16 0 -6 8 -4 17 3 15 12 16
12 11 -2 -4 -9 -1 -22 5 -29 10 -10 8 -11 -8 -6 -52 19 -62 17 -59 -12 2 -15
2 -22 -2 -15 -3 7 -12 9 -20 6 -10 -3 -12 0 -8 10 3 10 -2 20 -15 26 -17 10
-20 9 -15 -4 9 -23 -15 -48 -32 -34 -8 7 -14 7 -14 2 0 -6 -22 -10 -50 -9 -27
0 -50 4 -50 9 0 4 6 7 13 7 6 0 4 5 -7 11 -23 14 -35 -2 -28 -36 3 -19 13 -26
39 -31 24 -4 38 -3 43 6 6 9 10 7 15 -9 7 -23 13 -25 35 -11 13 9 13 11 0 20
-13 8 -13 10 2 10 22 0 33 -19 19 -33 -18 -18 -13 -31 6 -16 15 13 16 11 10
-11 -4 -14 -7 -28 -7 -31 0 -3 -11 -4 -23 -2 -29 6 -60 -23 -54 -49 4 -13 1
-18 -11 -17 -28 3 -52 -12 -52 -34 0 -11 -7 -29 -17 -39 -11 -13 -12 -18 -3
-18 14 0 60 -46 60 -60 0 -5 -5 -12 -10 -15 -8 -5 -8 -11 0 -20 8 -9 8 -15 0
-20 -5 -3 -10 -3 -10 0 0 3 -10 -1 -22 -9 -12 -9 -30 -16 -40 -16 -11 0 -15
-5 -12 -15 4 -9 0 -15 -7 -15 -8 0 -25 -9 -39 -20 -17 -13 -28 -16 -37 -9 -8
7 -19 6 -35 -2 -13 -7 -29 -12 -37 -10 -8 1 -17 -3 -21 -9 -4 -6 -21 -12 -38
-12 -17 -1 -29 -5 -26 -10 3 -4 -4 -8 -15 -8 -12 0 -21 -5 -21 -11 0 -7 -11
-9 -29 -6 -16 3 -32 3 -35 0 -4 -4 -14 -8 -24 -9 -77 -11 -101 -17 -132 -32
-19 -9 -38 -21 -41 -26 -4 -5 -14 -6 -22 -3 -8 3 -20 0 -26 -6 -8 -8 -11 -8
-11 2 0 10 -10 12 -35 8 -36 -6 -65 -27 -65 -46 0 -16 -18 -13 -22 4 -2 9 -8
12 -17 6 -11 -7 -10 -12 7 -29 19 -19 19 -20 2 -25 -25 -6 -42 6 -34 26 4 13
1 17 -15 17 -12 0 -21 -5 -21 -12 0 -9 -3 -9 -12 0 -15 15 -38 16 -38 2 0 -5
9 -10 20 -10 13 0 18 -5 14 -15 -8 -20 -43 2 -50 32 -4 13 -11 20 -16 17 -5
-4 -8 -14 -5 -24 3 -11 -1 -21 -9 -24 -8 -3 -14 -1 -14 5 0 6 -7 17 -15 25
-13 14 -17 14 -30 0 -8 -8 -15 -19 -15 -25 0 -5 -9 -8 -21 -6 -12 2 -40 -3
-62 -11 -23 -8 -46 -16 -52 -17 -5 -2 -16 -6 -23 -11 -17 -10 -142 2 -142 14
0 5 -25 6 -55 4 -42 -4 -55 -2 -53 8 2 8 -6 12 -25 10 -19 -3 -27 1 -27 12 0
19 -1 19 -34 6 -24 -9 -26 -8 -26 21 0 24 4 30 15 25 8 -3 15 -1 15 3 0 11 79
26 87 17 3 -3 0 -12 -7 -21 -10 -12 -10 -15 4 -15 18 0 21 22 7 49 -9 15 -6
17 20 13 16 -2 29 -8 29 -12 0 -4 11 -12 25 -18 21 -10 26 -9 36 10 8 15 13
17 19 8 5 -8 10 -9 14 -1 5 7 15 6 32 -5 13 -9 24 -13 24 -9 0 4 7 2 15 -5 8
-6 20 -8 27 -4 7 5 20 9 28 9 9 0 14 7 12 19 -2 11 1 15 7 11 6 -3 11 0 11 7
0 9 13 13 40 12 41 -2 53 9 23 21 -16 6 -15 8 6 19 15 9 20 16 12 20 -23 15
-9 33 32 42 28 7 42 15 41 25 -1 12 9 16 43 17 24 0 50 5 57 11 7 6 20 9 27 6
16 -6 42 42 32 58 -3 6 -1 7 5 3 17 -10 15 4 -3 24 -14 16 -14 17 10 13 13 -3
22 -9 19 -14 -3 -5 2 -6 10 -3 9 3 15 9 14 12 -3 17 15 40 28 35 10 -4 14 3
14 21 0 23 4 26 33 26 29 1 30 2 12 13 -11 6 -22 12 -25 12 -3 0 -11 4 -17 8
-12 8 -17 -3 -14 -29 1 -7 -5 -14 -13 -17 -17 -7 -16 23 2 42 8 8 11 23 8 35
l-5 21 17 -21 c15 -19 20 -20 45 -10 15 7 25 15 21 18 -3 4 -1 15 5 26 8 15 8
22 -2 25 -9 4 -9 6 1 6 6 1 12 8 12 16 0 8 6 15 14 15 9 0 12 -7 9 -20 -3 -12
0 -20 7 -20 7 0 10 7 6 15 -3 8 -2 15 2 16 45 5 63 16 44 28 -7 4 -14 23 -14
42 -1 46 -7 53 -28 34 -10 -9 -23 -14 -28 -11 -5 3 -14 -6 -20 -19 -7 -14 -18
-25 -27 -25 -8 0 -15 -4 -15 -10 0 -5 -8 -10 -18 -10 -21 0 -62 -32 -62 -47 0
-6 -14 -13 -30 -16 -28 -6 -44 -37 -19 -37 5 0 7 -5 4 -10 -4 -6 -11 -7 -17
-4 -7 5 -9 1 -5 -9 3 -10 2 -17 -3 -17 -6 0 -10 6 -11 13 0 6 -5 2 -11 -10
-14 -30 -27 -30 -21 0 3 17 1 16 -13 -8 l-18 -30 -6 25 c-3 14 -9 20 -13 14
-3 -6 -18 -9 -33 -6 -16 3 -29 -1 -34 -8 -5 -8 -24 -14 -44 -14 -31 -1 -35 -4
-30 -21 5 -19 4 -19 -9 -2 -11 14 -16 15 -20 5 -4 -10 -8 -10 -14 -1 -8 12
-28 17 -53 13 -9 -1 -2 -8 15 -16 l30 -15 -30 6 c-16 4 -38 14 -47 22 -16 14
-18 14 -24 -1 -4 -10 -13 -15 -20 -12 -8 3 -14 1 -14 -5 0 -10 -44 -8 -55 3
-3 3 1 11 10 18 8 7 15 18 15 24 0 6 -5 4 -10 -4 -9 -13 -13 -11 -30 10 -17
22 -20 22 -20 6 0 -12 -5 -16 -15 -13 -8 4 -17 2 -20 -3 -4 -6 -12 -10 -18
-10 -8 0 -9 2 -1 8 6 4 14 21 17 37 3 17 4 24 1 18 -8 -19 -48 -17 -40 2 3 8
2 15 -3 15 -5 0 -11 -14 -15 -31 -3 -17 -10 -28 -16 -24 -6 4 -8 11 -4 16 3 6
-2 16 -12 23 -11 8 -15 19 -11 31 6 15 10 15 25 4 13 -10 13 -9 -2 7 -13 13
-20 15 -23 7 -3 -7 -11 -13 -19 -13 -8 0 -14 -9 -14 -20 0 -11 -4 -20 -9 -20
-4 0 -6 11 -3 25 2 14 9 25 14 25 5 0 6 5 3 10 -4 6 -11 8 -16 5 -5 -4 -9 -1
-9 6 0 7 -3 10 -6 6 -4 -3 -13 0 -21 8 -10 11 -11 19 -4 32 10 17 10 16 11 -2
0 -18 2 -17 13 5 9 17 10 28 3 33 -7 5 -2 7 12 4 26 -6 30 14 7 37 -17 17 -20
42 -5 51 6 3 10 1 10 -4 0 -6 5 -11 10 -11 6 0 10 23 10 50 0 28 5 50 10 50 6
0 9 18 8 40 -2 23 -8 40 -15 40 -6 0 -11 -8 -11 -18 1 -9 -2 -30 -7 -47 l-9
-30 -6 35 c-6 35 6 79 25 92 6 5 1 14 -13 23 -28 20 -28 35 -1 35 28 0 21 34
-8 38 -25 4 -35 23 -22 43 7 11 11 10 24 -8 16 -24 35 -30 35 -14 0 6 -16 27
-35 48 -21 23 -30 40 -23 42 7 2 14 -1 16 -8 4 -13 22 -5 22 10 0 6 -5 7 -10
4 -6 -3 -10 1 -10 9 0 9 6 16 14 16 8 0 17 7 20 16 5 12 2 15 -11 10 -17 -6
-17 -5 -1 7 16 13 22 29 19 55 -2 19 -19 14 -31 -8 -9 -16 -8 -19 6 -13 12 4
15 3 10 -6 -5 -8 -17 -10 -35 -6 -14 4 -32 8 -39 8 -7 0 -11 5 -9 11 2 6 15
10 29 8 16 -2 28 3 31 12 4 9 1 15 -5 13 -6 -1 -12 3 -15 10 -3 7 3 9 17 6 19
-5 22 -2 20 23 -1 16 -1 31 0 34 6 17 5 50 -2 50 -4 0 -8 10 -8 22 0 21 0 21
16 2 15 -18 15 -18 10 8 -3 14 -8 32 -11 40 -3 8 4 25 15 38 11 13 18 25 16
28 -7 6 -36 -24 -36 -37 0 -14 -17 -14 -25 0 -4 6 -13 8 -19 6 -9 -4 -13 7
-14 30 -1 19 -7 42 -14 51 -11 13 -10 14 8 4 19 -10 20 -8 18 28 -1 21 -5 44
-10 52 -4 7 -4 10 1 6 4 -4 15 -2 23 5 13 10 14 9 8 -3 -5 -8 6 1 24 20 18 19
28 36 21 38 -6 2 -11 11 -12 20 0 11 -6 6 -15 -13 -14 -28 -15 -26 -10 48 3
47 1 77 -5 77 -6 0 -9 8 -8 18 4 40 -2 62 -16 62 -24 0 -19 51 5 57 11 3 17
10 14 15 -3 5 -13 7 -23 4 -15 -6 -15 -5 1 6 9 7 23 18 32 23 8 6 17 28 20 50
3 22 3 33 0 23 -6 -20 -31 -31 -39 -18 -4 6 -1 10 4 10 6 0 11 11 11 25 0 14
-5 25 -10 25 -7 0 -7 7 0 21 7 11 9 27 6 35 -3 8 -2 13 2 10 5 -3 9 8 9 25 0
20 -5 28 -13 25 -13 -5 -25 15 -29 47 -1 9 2 17 7 17 5 0 6 11 2 25 -4 16 -2
25 6 25 7 0 10 -7 6 -15 -3 -8 -1 -15 5 -15 7 0 9 12 7 30 -3 20 0 30 9 30 7
0 13 5 13 10 0 6 -7 10 -15 10 -10 0 -15 10 -15 30 0 17 -5 30 -12 31 -7 0 -4
4 7 8 20 8 20 8 -1 15 -16 5 -20 12 -16 37 3 20 0 34 -9 40 -11 7 -11 9 3 9
11 0 15 6 11 20 -3 11 -10 20 -15 20 -6 0 -5 7 2 15 7 9 15 13 18 11 2 -3 14
0 26 6 11 7 25 11 29 10 5 -2 7 3 5 10 -3 7 -22 14 -44 14 -68 2 -68 2 -54 19
16 20 135 22 124 3 -4 -7 1 -5 12 4 16 14 39 16 139 15 110 -2 122 -4 143 -24
27 -28 28 -33 2 -26 -11 3 -26 0 -34 -6 -11 -9 -16 -9 -22 0 -4 7 -3 9 4 5 19
-11 26 16 8 30 -22 15 -68 12 -74 -6 -3 -9 1 -11 11 -7 24 9 38 -16 38 -69 1
-27 7 -59 15 -71 12 -19 12 -23 -4 -32 -14 -8 -15 -12 -3 -23 8 -8 11 -8 7 -1
-3 6 -2 14 3 17 5 3 11 -1 15 -9 3 -8 1 -17 -5 -20 -5 -4 -7 -11 -4 -16 4 -5
-2 -6 -11 -2 -14 5 -16 3 -11 -11 4 -10 7 -20 7 -22 0 -2 6 -4 13 -4 8 0 12
-18 12 -55 0 -30 3 -55 8 -55 5 0 6 -13 2 -30 -5 -25 -4 -29 9 -24 12 5 15 2
10 -10 -4 -9 0 -18 9 -22 8 -3 13 -13 10 -22 -2 -11 5 -21 19 -27 13 -5 21
-12 18 -15 -3 -3 5 -16 18 -30 12 -13 22 -28 22 -34 0 -17 44 -76 58 -76 11 0
16 -13 13 -32 0 -5 6 -8 14 -8 9 0 19 -8 22 -17 9 -23 22 -36 53 -50 14 -6 19
-12 11 -12 -27 -2 22 -30 51 -31 15 0 30 -4 33 -10 3 -5 -3 -10 -14 -10 l-21
0 20 -20 c26 -26 27 -26 28 12 1 34 -14 61 -29 52 -12 -7 -11 3 1 27 8 15 7
19 -4 19 -8 0 -16 -5 -18 -12 -3 -7 -7 -5 -11 6 -4 10 -3 15 3 11 13 -8 13 5
0 25 -6 10 -10 11 -10 3 0 -7 -4 -13 -10 -13 -5 0 -7 7 -4 15 7 18 34 20 34 3
0 -10 3 -9 9 1 5 8 0 28 -15 56 -20 35 -71 183 -98 285 -51 186 -71 312 -64
394 4 44 10 57 42 88 42 40 99 59 119 39 9 -9 8 -10 -7 -5 -15 6 -17 4 -11 -6
5 -9 4 -11 -4 -6 -6 4 -14 0 -17 -9 -5 -11 -10 -13 -19 -5 -9 7 -20 4 -39 -11
-33 -26 -33 -38 -1 -31 15 2 25 0 25 -7 0 -6 -4 -11 -10 -11 -5 0 -10 -7 -10
-15 0 -8 -7 -15 -15 -15 -9 0 -12 6 -8 17 4 11 3 14 -5 9 -16 -10 -15 -22 4
-41 9 -8 14 -24 11 -35 -3 -11 0 -18 6 -17 6 1 13 -8 15 -21 2 -12 8 -20 13
-16 5 3 6 10 3 16 -4 7 -2 8 4 4 8 -4 7 -17 -4 -41 -8 -19 -12 -35 -9 -35 4 0
0 -9 -8 -21 -12 -16 -12 -26 -4 -50 6 -16 15 -29 20 -29 4 0 5 -5 2 -10 -5 -8
-11 -7 -21 1 -12 9 -14 6 -14 -20 0 -17 6 -47 14 -66 8 -18 12 -36 8 -39 -3
-3 0 -6 7 -6 9 0 11 8 7 26 -5 17 -3 23 4 19 5 -3 10 -12 10 -19 0 -16 48 -61
56 -53 8 8 54 -43 54 -59 0 -7 10 -14 22 -17 19 -5 20 -8 7 -23 -8 -10 -9 -15
-3 -11 7 4 14 -1 17 -13 3 -10 0 -21 -5 -22 -7 -3 -6 -12 3 -26 16 -25 34 -30
25 -7 -7 19 -6 19 56 -2 46 -15 49 -17 29 -27 -17 -9 -19 -14 -9 -24 7 -7 21
-12 33 -11 11 0 14 3 8 6 -7 2 -13 9 -13 14 0 14 47 10 63 -5 8 -9 24 -13 38
-10 18 5 21 3 9 -5 -11 -7 -6 -10 20 -9 19 1 36 -4 38 -10 2 -7 10 -12 17 -12
7 0 16 -7 19 -16 3 -8 10 -12 16 -9 5 3 33 8 61 10 37 4 49 1 47 -8 -3 -6 -18
-13 -34 -15 -16 -2 -33 -8 -39 -14 -7 -7 5 -9 39 -5 27 3 51 10 55 15 8 13 51
12 68 -1 7 -5 18 -5 24 -1 8 4 9 3 5 -4 -5 -8 1 -12 14 -12 12 0 18 5 15 10
-8 13 1 13 25 -2 16 -10 24 -10 41 0 12 8 46 13 77 12 32 -1 59 -1 62 0 3 1
46 3 95 6 50 2 101 9 115 15 14 6 35 16 47 22 11 5 25 7 31 3 18 -11 182 49
182 67 0 4 15 5 34 2 32 -6 57 7 42 23 -10 10 -75 5 -90 -7 -7 -6 -16 -8 -19
-4 -4 3 -17 2 -30 -4 -43 -21 -113 -43 -134 -43 -12 0 -25 -5 -28 -10 -4 -6
-9 -9 -13 -6 -4 2 -32 0 -62 -5 -30 -4 -94 -11 -141 -14 l-86 -6 5 27 c5 26 4
27 -32 21 -20 -3 -36 -2 -36 4 0 5 -5 9 -11 9 -5 0 -7 -4 -4 -10 3 -6 -1 -7
-10 -3 -13 5 -14 7 -3 14 7 5 21 9 31 9 26 0 21 37 -9 67 -14 14 -23 31 -20
39 3 8 0 11 -10 7 -7 -3 -14 -9 -14 -15 0 -5 -5 -6 -11 -3 -6 5 -4 11 7 19 9
7 14 18 10 24 -5 8 -2 10 8 6 11 -4 16 0 16 14 0 11 7 22 15 26 8 3 15 1 15
-4 0 -6 5 -10 11 -10 8 0 8 4 1 13 -5 6 -12 26 -15 44 -3 17 -8 36 -11 42 -4
5 -2 12 3 16 11 6 3 35 -10 35 -4 0 -5 -7 -2 -17 4 -11 3 -14 -5 -9 -7 4 -12
3 -12 -2 0 -5 -13 -12 -29 -14 -25 -4 -30 0 -34 20 -2 13 1 25 7 27 20 7 125
11 124 6 0 -4 0 -15 1 -26 1 -17 3 -18 11 -5 8 11 9 8 4 -11 -3 -15 -1 -30 5
-33 6 -4 11 -20 11 -37 0 -19 5 -29 15 -29 21 0 37 42 22 55 -11 10 -14 17
-22 57 -2 9 3 24 10 35 11 14 16 15 26 6 10 -10 9 -15 -1 -28 -10 -12 -10 -15
0 -15 10 0 10 -3 1 -14 -12 -14 0 -31 13 -19 4 4 18 9 31 10 20 3 25 -1 25
-17 0 -20 1 -20 16 -6 8 9 20 14 25 11 5 -4 9 0 10 7 1 7 5 2 9 -12 8 -25 8
-25 9 -2 1 13 6 20 11 17 15 -9 12 15 -4 31 -8 8 -19 14 -25 14 -6 0 -11 6
-11 13 -1 7 -6 5 -14 -6 -15 -19 -33 -6 -20 15 4 6 3 8 -4 4 -6 -3 -13 -2 -16
3 -6 10 10 24 38 35 14 5 16 3 9 -6 -7 -9 -4 -18 8 -30 9 -9 20 -14 23 -10 3
3 6 1 6 -5 0 -14 67 -46 80 -38 15 9 12 42 -6 59 -8 9 -13 20 -10 25 4 5 0 12
-6 14 -18 8 33 8 59 1 13 -4 21 -10 18 -14 -3 -5 3 -6 13 -3 10 2 24 -3 31
-11 15 -18 41 -22 41 -6 0 5 -6 7 -13 4 -17 -6 -42 22 -28 30 6 4 7 14 4 23
-4 11 -3 14 5 9 8 -5 10 -2 6 8 -4 11 0 16 10 16 9 0 16 -5 16 -11 0 -7 10 -4
26 6 18 11 29 14 36 7 6 -6 17 -8 26 -5 9 4 13 2 9 -4 -4 -6 0 -16 7 -22 11
-10 16 -8 21 10 7 21 9 21 20 6 7 -9 17 -17 23 -17 6 0 23 -5 39 -12 15 -6 39
-10 53 -9 20 1 22 0 10 -8 -11 -8 -2 -11 35 -11 28 0 73 -8 100 -18 30 -12 60
-16 75 -12 21 5 18 8 -22 14 -28 4 -53 15 -60 25 -7 10 -17 19 -23 19 -5 0
-11 5 -13 10 -1 5 33 10 82 10 79 1 126 14 126 35 0 4 -3 6 -7 4 -5 -3 -39 -8
-76 -11 -114 -11 -147 12 -48 32 32 7 64 19 70 26 10 12 3 13 -48 9 -71 -7
-135 3 -125 19 5 8 1 9 -9 5 -15 -6 -16 -4 -3 16 18 28 10 74 -15 88 -11 5
-19 7 -19 3 0 -3 -6 -1 -14 5 -7 6 -20 9 -29 5 -10 -3 -20 2 -27 16 -6 11 -15
18 -20 15 -5 -3 -12 0 -15 6 -4 5 -14 8 -22 5 -8 -3 -11 -1 -8 4 3 6 3 10 -2
11 -4 0 -15 2 -23 4 -8 2 -28 6 -45 10 -65 12 -76 16 -69 26 4 7 -1 9 -14 5
-12 -4 -38 -3 -59 3 -59 15 -192 23 -376 23 -150 1 -166 2 -155 16 11 13 11
14 0 8 -10 -6 -13 -1 -10 20 2 17 8 28 16 26 6 -1 12 5 12 13 0 8 6 15 13 16
25 2 64 7 147 18 90 13 101 14 300 27 220 15 703 10 805 -8 103 -18 184 -50
186 -73 2 -16 5 -34 9 -37 4 -6 10 -48 20 -138 11 -103 22 -123 58 -109 15 6
22 17 22 36 1 70 50 132 133 166 23 10 41 26 47 42 5 14 14 24 19 21 9 -6 33
-199 31 -261 -1 -22 1 -115 3 -207 2 -93 0 -168 -5 -168 -4 0 -8 -9 -8 -20 0
-11 -5 -20 -11 -20 -7 0 -8 -7 -4 -17 4 -10 8 -40 10 -66 2 -37 -1 -47 -12
-43 -10 4 -11 1 -3 -13 5 -10 11 -36 12 -57 2 -26 8 -39 18 -39 11 0 16 13 17
45 3 54 17 140 32 198 7 23 9 47 6 52 -3 6 0 10 7 10 10 0 10 2 0 8 -12 8 -14
57 -11 283 1 73 17 159 29 159 3 0 4 23 4 51 -2 64 4 89 21 83 11 -5 16 4 40
71 4 11 9 31 11 44 2 13 8 29 13 34 16 16 14 70 -1 61 -9 -5 -9 -2 1 9 7 9 20
17 28 17 12 0 14 7 9 30 -3 17 -1 30 4 30 6 0 8 11 4 26 -5 20 -4 25 6 19 9
-6 9 -3 0 15 -10 18 -9 21 1 15 9 -6 10 -2 5 16 -7 22 -11 108 -5 119 4 8 7
24 8 45 2 20 2 20 17 0 8 -11 14 -29 12 -40 -2 -18 4 -27 17 -24 3 1 11 2 18
3 13 2 14 20 1 50 -5 14 -4 17 4 12 7 -4 12 -1 12 8 0 9 5 16 11 16 6 0 9 7 5
15 -3 8 -1 15 3 15 5 0 12 -6 14 -12 3 -8 6 -6 6 5 1 9 9 17 18 17 15 0 15 1
-2 13 -12 10 -14 16 -7 21 7 4 12 2 12 -3 0 -21 15 -11 28 17 7 16 26 44 42
62 17 19 30 37 30 41 0 5 7 5 17 2 10 -4 14 -2 9 5 -3 6 -2 13 3 16 4 3 11 19
14 35 14 66 92 61 162 -10 46 -48 57 -105 30 -165 -38 -86 -52 -109 -113 -177
-34 -40 -87 -109 -117 -154 l-55 -81 0 -101 c0 -56 7 -145 14 -199 10 -62 16
-199 18 -377 3 -311 4 -308 -67 -407 l-35 -48 -1 -233 c0 -127 -4 -258 -10
-290 -5 -32 -30 -98 -55 -147 -37 -72 -59 -102 -117 -155 -39 -36 -77 -65 -83
-65 -7 0 -14 -4 -16 -10 -1 -5 -19 -11 -38 -13 l-35 -4 -5 -200 -5 -200 80
-17 c144 -31 297 -76 360 -105 57 -27 106 -35 390 -61 260 -25 302 -31 425
-67 47 -13 117 -33 155 -43 61 -16 96 -28 200 -71 11 -5 63 -27 115 -49 93
-40 132 -49 400 -90 36 -5 115 -28 175 -50 61 -23 146 -55 190 -71 73 -28 256
-73 348 -86 l37 -6 0 4437 0 4437 -24 22 c-13 12 -30 42 -37 67 -8 25 -23 55
-34 68 -11 13 -20 27 -20 31 0 13 -126 131 -139 131 -41 0 -154 84 -156 115 0
6 -7 23 -16 40 -9 18 -13 42 -9 65 3 19 6 50 7 69 2 25 12 41 40 65 20 17 43
31 50 31 28 1 134 38 160 57 16 10 28 15 28 9 0 -5 14 -3 30 6 17 8 38 12 48
8 9 -4 29 -9 45 -10 l27 -3 0 129 0 128 -35 12 c-19 7 -35 17 -35 21 0 5 -9 3
-20 -4 -15 -10 -27 -10 -49 -1 -17 6 -33 8 -36 4 -12 -11 -30 -7 -42 10 -9 12
-24 15 -58 13 -29 -3 -45 0 -45 7 0 15 -48 5 -102 -21 -60 -29 -121 -27 -146
5 l-20 25 -915 0 c-722 0 -918 -3 -924 -13 -4 -6 -28 -22 -53 -34 -102 -48
-180 -83 -187 -83 -4 0 -37 -20 -73 -45 l-65 -45 -130 -10 c-71 -6 -148 -12
-170 -13 -59 -4 -113 24 -147 74 -41 61 -45 86 -20 131 l20 38 -924 0 c-619 0
-923 -3 -919 -10 3 -6 20 -17 37 -26 17 -9 43 -30 57 -47 49 -58 85 -85 120
-92 28 -5 54 -25 112 -86 52 -54 95 -89 137 -110 65 -32 102 -69 102 -100 0
-24 -9 -24 -40 1 -14 11 -31 20 -37 20 -7 0 -13 5 -13 10 0 6 -7 10 -16 10
-17 0 -16 -33 1 -72 5 -13 3 -18 -8 -18 -8 0 -17 -3 -19 -7 -4 -11 -106 -54
-148 -63 -19 -4 -28 -9 -20 -10 11 -1 9 -4 -5 -10 -17 -7 -17 -9 -2 -9 9 -1
17 -6 17 -12 0 -5 5 -7 10 -4 21 13 78 -15 88 -43 5 -15 26 -45 47 -67 20 -22
52 -63 70 -91 31 -47 34 -57 37 -147 3 -89 1 -97 -21 -120 -12 -14 -35 -28
-49 -32 -45 -11 -109 -44 -115 -58 -3 -8 -26 -24 -51 -36 -38 -19 -51 -21 -83
-12 -49 14 -126 14 -140 0 -8 -8 -13 -8 -17 0 -4 6 -22 11 -39 11 -18 0 -58 9
-90 20 -31 11 -68 20 -82 20 -47 0 -100 30 -157 92 -53 56 -60 60 -89 54 -52
-10 -59 -22 -59 -100 1 -101 -1 -107 -27 -119 -26 -12 -151 4 -162 21 -3 4
-28 19 -54 31 -36 18 -51 21 -60 12 -14 -14 -41 -14 -86 0 -20 7 -42 14 -50
16 -10 3 -11 7 -4 14 8 8 8 20 1 42 -10 27 -12 29 -24 13 -7 -10 -18 -15 -24
-11 -12 8 42 65 61 65 12 0 7 108 -6 143 -4 9 -2 30 5 46 9 23 9 37 -1 66 -11
29 -15 33 -20 18 -7 -15 -8 -15 -8 5 -1 12 -7 33 -15 45 -8 12 -19 47 -26 77
-6 30 -15 67 -20 83 -5 16 -4 27 1 27 14 0 11 21 -5 39 -11 13 -13 36 -7 107
7 110 5 130 -15 113 -11 -9 -14 -8 -14 5 0 9 5 16 10 16 6 0 10 5 10 10 0 6
-7 10 -15 10 -8 0 -15 8 -15 18 0 10 -7 27 -15 38 -20 26 -19 48 5 94 18 36
30 45 53 41 4 0 6 2 6 6 -3 19 2 30 14 31 6 0 19 2 27 3 47 7 82 -2 87 -21 3
-11 10 -17 16 -13 6 3 7 1 3 -6 -14 -22 19 -39 81 -40 78 -1 119 19 125 59 3
17 2 32 0 35 -7 7 -862 7 -862 0 0 -3 9 -14 20 -25 11 -11 17 -26 13 -36 -3
-9 0 -20 7 -24 7 -4 13 -22 12 -39 0 -19 4 -31 12 -31 8 0 12 -13 12 -34 -1
-19 -4 -32 -8 -29 -5 2 -8 0 -8 -6 0 -5 4 -11 9 -13 6 -1 12 -28 15 -58 2 -30
9 -75 14 -100 12 -55 14 -240 3 -240 -5 0 -16 -20 -25 -44 -26 -69 -73 -132
-111 -150 -19 -10 -35 -23 -35 -31 0 -8 -8 -15 -17 -15 -13 0 -14 -3 -5 -12
22 -22 14 -66 -18 -98 -16 -17 -30 -36 -31 -43 -1 -26 -8 -48 -34 -114 -31
-77 -40 -91 -70 -104 -11 -5 -32 -18 -47 -30 -23 -19 -32 -21 -67 -12 -22 6
-55 7 -73 3 -21 -4 -47 -2 -71 8 -29 11 -44 12 -63 4 -13 -7 -24 -16 -24 -22
0 -5 -6 -10 -14 -10 -8 0 -16 -6 -19 -13 -3 -8 -36 -27 -74 -42 -61 -25 -69
-32 -65 -51 2 -13 -3 -33 -12 -46 -9 -12 -16 -35 -16 -50 0 -15 -8 -35 -18
-45 -10 -10 -19 -31 -20 -47 -1 -17 -8 -33 -14 -37 -7 -5 -10 -9 -8 -11 3 -2
14 -8 24 -14 28 -15 29 -27 5 -42 -18 -12 -24 -11 -41 8 -12 12 -18 31 -17 48
2 15 0 32 -4 39 -4 6 -3 23 3 37 8 23 7 26 -13 26 -13 0 -28 5 -33 10 -14 14
-5 70 12 70 7 0 25 12 39 27 14 15 25 24 25 20 0 -4 9 -3 20 3 26 14 17 30
-16 30 -31 0 -109 -35 -133 -59 -10 -10 -25 -21 -32 -23 -11 -4 -11 -10 -2
-31 8 -16 9 -27 3 -27 -6 0 -10 -6 -10 -14 0 -8 -5 -16 -12 -18 -7 -3 -9 -11
-4 -24 6 -12 10 -15 13 -6 3 6 12 12 21 12 12 0 11 -4 -7 -17 -13 -10 -38 -32
-55 -49 -30 -29 -37 -31 -87 -27 -31 2 -59 10 -65 18 -12 16 -96 14 -117 -3
-17 -13 -89 -23 -82 -11 4 5 13 9 21 9 8 0 14 5 14 10 0 6 -2 10 -5 10 -11 0
-55 -24 -55 -31 0 -4 -6 -9 -13 -12 -9 -3 -13 6 -14 32 -1 28 5 41 25 58 l27
22 -30 2 c-16 1 -40 1 -52 0 -27 -2 -30 16 -5 35 15 12 12 13 -23 14 -63 0
-83 -34 -50 -84 11 -16 13 -36 9 -69 l-7 -47 -48 6 -48 6 3 -28 c2 -16 4 -38
5 -48 1 -18 3 -17 21 4 20 23 20 23 20 2 0 -12 -6 -25 -14 -29 -7 -4 -24 -28
-37 -53 -26 -48 -151 -175 -162 -163 -4 3 -7 15 -7 25 0 11 -7 18 -20 18 -11
0 -20 4 -20 10 0 5 6 7 14 4 17 -7 126 65 126 83 0 7 3 13 8 13 4 0 13 12 19
27 16 33 3 44 -42 38 -35 -5 -59 10 -69 45 -6 19 -5 21 3 10 9 -12 11 -10 11
10 0 14 8 51 17 83 19 61 26 65 85 42 27 -11 34 33 9 58 -21 21 -22 21 -105 4
-46 -9 -92 -17 -102 -17 -38 0 -94 21 -94 35 0 8 -7 15 -15 15 -16 0 -28 36
-23 71 4 30 48 43 78 22 20 -14 22 -13 27 5 3 13 16 22 38 26 42 8 51 20 58
76 3 24 11 46 16 48 6 2 11 14 11 27 0 12 6 28 14 35 8 6 12 18 9 26 -6 16 37
164 48 164 13 0 48 85 59 140 7 41 18 62 40 82 28 26 34 27 112 23 46 -2 84
-9 86 -15 2 -5 7 -8 12 -5 18 11 109 -57 103 -77 -5 -13 121 -64 189 -77 63
-12 68 -12 89 8 12 11 43 28 68 37 25 10 49 20 53 24 14 11 20 169 8 205 -6
19 -15 35 -20 35 -4 0 -11 17 -15 37 -5 29 -3 40 10 49 9 7 15 18 14 26 -3 17
9 83 21 124 6 17 12 53 14 78 4 54 13 67 47 68 31 0 70 19 63 30 -3 4 2 8 10
8 8 0 20 9 26 19 6 13 18 18 30 16 23 -4 94 57 82 70 -4 5 -2 5 4 2 24 -14 89
36 111 86 l13 27 -3340 0 -3341 0 1 -440z m4970 400 c26 -19 47 -76 43 -117 0
-7 2 -13 6 -13 12 0 4 -84 -8 -88 -6 -2 -11 -10 -11 -17 0 -8 -6 -18 -13 -22
-7 -4 -28 -28 -47 -53 -19 -25 -49 -61 -67 -80 -28 -30 -36 -33 -52 -23 -16
10 -22 8 -37 -8 -23 -26 -76 -25 -119 4 -27 17 -35 29 -35 53 0 36 13 54 63
83 29 18 37 29 37 52 0 21 4 28 13 23 10 -6 10 -4 0 7 -7 7 -13 28 -13 45 0
18 -4 36 -10 39 -5 3 -10 11 -10 16 0 6 5 7 10 4 6 -3 10 0 10 8 0 8 15 26 33
40 86 65 158 82 207 47z m7492 -68 c30 -31 38 -47 39 -83 1 -24 -1 -55 -4 -69
-4 -14 -9 -34 -11 -45 -2 -11 -10 -37 -20 -57 -9 -21 -16 -49 -16 -63 0 -14
-4 -25 -8 -25 -5 0 -35 -20 -67 -45 -32 -25 -64 -44 -70 -43 -13 3 -68 45
-116 89 -23 21 -30 38 -34 75 -3 27 -10 62 -16 77 -12 29 -3 61 28 97 69 80
136 145 159 154 35 15 83 -7 136 -62z m-11362 21 c64 -32 88 -38 165 -43 50
-3 106 -13 125 -22 19 -9 49 -21 65 -27 41 -16 75 -71 75 -121 0 -22 -4 -40
-9 -40 -5 0 -7 -8 -5 -17 9 -36 -86 -133 -129 -133 -24 0 -89 -22 -97 -32 -3
-3 -23 -8 -44 -10 -26 -2 -43 -10 -50 -22 -6 -11 -28 -37 -48 -57 -21 -21 -38
-42 -38 -46 0 -7 -38 -27 -75 -39 -58 -19 -111 -40 -113 -46 -6 -13 -40 -9
-45 6 -4 10 1 13 16 10 20 -4 20 -4 -1 6 -13 5 -28 8 -33 5 -4 -3 -19 11 -32
32 -28 45 -33 136 -11 223 16 60 10 112 -15 150 -9 14 -21 39 -27 55 -8 21
-17 29 -30 27 -18 -2 -18 -2 -1 11 9 8 17 22 17 30 0 19 30 57 44 57 5 0 23
11 40 24 17 13 47 27 66 31 19 4 42 11 50 16 29 16 65 9 140 -28z m1791 -199
c60 -30 129 -118 129 -163 0 -11 4 -21 9 -21 4 0 6 -12 3 -26 -4 -22 3 -34 35
-64 49 -45 57 -48 136 -55 34 -4 67 -8 74 -10 6 -2 17 2 23 10 7 9 29 14 55
13 24 0 49 3 56 8 17 10 174 6 214 -6 81 -24 115 -28 173 -23 43 4 66 11 70
21 3 8 18 27 34 42 15 15 28 36 28 47 0 21 41 70 80 95 54 33 164 27 245 -15
22 -12 47 -22 55 -24 8 -1 43 -16 78 -33 34 -16 71 -30 82 -30 10 0 21 -4 25
-9 3 -5 18 -9 34 -9 15 1 33 -2 38 -5 6 -4 25 -2 43 3 28 8 33 7 37 -10 3 -11
12 -20 19 -20 32 0 46 -96 17 -107 -33 -12 -83 -74 -83 -103 0 -19 -12 -39
-38 -64 -50 -49 -86 -66 -137 -66 -26 0 -47 -6 -55 -15 -7 -8 -19 -15 -27 -15
-10 0 -11 -5 -5 -16 10 -18 4 -66 -8 -59 -4 2 -19 -8 -34 -24 -24 -25 -26 -31
-15 -57 6 -16 13 -24 16 -17 5 14 63 -3 63 -18 0 -5 17 -9 38 -9 20 0 59 -7
86 -15 27 -8 64 -15 82 -15 37 0 97 -31 134 -70 14 -15 35 -32 48 -39 12 -6
22 -20 22 -31 0 -10 3 -21 8 -24 4 -2 5 -29 2 -59 -4 -42 -12 -62 -37 -90 -17
-20 -44 -39 -60 -43 -15 -4 -33 -11 -40 -16 -6 -5 -31 -6 -56 -3 -49 8 -122
-8 -134 -29 -13 -22 -83 -65 -98 -60 -7 3 -16 1 -19 -4 -4 -6 -19 -6 -43 0
-21 5 -76 11 -123 13 -89 3 -140 -14 -154 -51 -3 -8 -10 -13 -15 -10 -5 3 -12
-1 -15 -10 -3 -8 -10 -12 -16 -9 -5 3 -10 -1 -10 -10 0 -8 -6 -18 -14 -21 -8
-3 -16 -19 -20 -35 -5 -24 1 -41 26 -77 26 -37 33 -58 34 -99 1 -29 -5 -65
-12 -79 -8 -14 -14 -33 -14 -40 0 -22 -70 -94 -92 -94 -10 0 -16 -4 -13 -10
10 -16 -23 -12 -65 9 -27 13 -41 15 -45 7 -3 -8 -7 -7 -11 2 -8 17 -28 15 -69
-8 -53 -30 -90 -26 -132 14 -31 29 -42 33 -70 29 -21 -4 -33 -2 -33 6 0 6 4
11 10 11 14 0 24 48 12 63 -13 17 -21 66 -11 73 12 7 11 61 -1 69 -5 3 -10 17
-10 31 0 13 -4 24 -10 24 -5 0 -10 5 -10 11 0 6 -12 25 -26 42 -14 17 -38 57
-54 88 -15 31 -34 66 -42 78 -19 27 -83 63 -94 53 -4 -4 -4 -2 -1 4 8 13 -19
22 -103 34 -46 6 -68 4 -130 -17 -41 -14 -81 -29 -89 -33 -17 -9 -127 21 -167
46 -16 10 -30 19 -32 19 -1 1 -8 25 -16 54 l-13 52 36 49 c36 50 113 100 175
114 32 8 51 26 67 65 9 22 5 29 -31 60 -39 33 -76 104 -64 122 2 5 -5 13 -16
19 -11 6 -20 17 -20 24 0 8 -12 17 -26 20 -29 8 -54 28 -54 45 0 10 -78 68
-93 69 -18 0 -73 27 -80 39 -11 18 -27 16 -27 -2 0 -8 -4 -15 -10 -15 -5 0
-10 5 -10 10 0 7 -6 7 -20 0 -11 -6 -20 -8 -20 -5 0 4 -7 0 -15 -8 -21 -22
-96 -30 -149 -16 -44 11 -92 52 -81 69 3 4 -22 36 -55 71 -67 72 -72 93 -40
162 20 43 70 89 100 94 8 1 16 7 18 12 2 6 14 11 27 11 12 0 28 6 34 14 15 17
30 15 96 -14 58 -26 110 -27 135 -5 10 9 28 17 40 18 11 1 35 14 52 29 18 15
40 28 50 28 10 0 18 5 18 10 0 6 12 10 28 10 15 0 50 9 77 20 62 24 68 24 106
4z m8696 -25 c33 -12 56 -40 71 -82 12 -33 12 -41 -1 -55 -8 -9 -17 -34 -21
-54 -5 -28 -23 -54 -71 -103 -35 -36 -69 -65 -75 -65 -5 0 -10 -3 -10 -8 0 -4
-14 -13 -32 -21 -17 -8 -60 -42 -94 -75 -52 -49 -62 -65 -58 -83 4 -13 13 -23
21 -23 8 0 12 -4 9 -9 -3 -5 5 -42 18 -82 20 -62 22 -78 12 -99 -7 -14 -11
-32 -9 -40 2 -8 -12 -30 -32 -49 -35 -33 -47 -35 -99 -15 -11 4 -16 0 -17 -12
-1 -17 -2 -17 -6 -1 -6 24 -30 21 -36 -5 -6 -23 12 -67 60 -148 19 -31 27 -60
28 -98 2 -52 1 -54 -42 -83 -23 -16 -43 -34 -43 -39 0 -14 1 -11 -14 -55 -13
-38 -16 -40 -60 -43 -40 -3 -53 2 -86 28 -22 18 -40 28 -40 23 0 -16 -48 48
-60 80 -6 17 -18 47 -26 65 -8 18 -14 43 -14 55 0 12 -14 35 -30 51 -17 16
-30 33 -30 38 0 4 -15 8 -32 7 -18 0 -55 4 -82 10 -26 6 -52 8 -57 5 -5 -3 -9
0 -9 5 0 6 -13 11 -29 11 -26 0 -32 8 -65 73 -20 41 -36 80 -36 87 0 7 12 33
26 57 19 33 24 51 19 71 -4 15 -7 72 -6 127 3 128 21 170 94 218 29 19 69 40
89 46 20 7 38 15 40 19 8 20 75 56 112 60 109 12 158 13 170 3 10 -8 31 -2 85
25 39 19 71 39 71 43 0 4 12 20 28 34 103 100 139 116 257 115 50 0 100 -4
112 -9z m-9601 -633 c11 -8 37 -17 57 -21 39 -8 47 -19 21 -29 -10 -4 -14 -12
-10 -22 4 -11 -1 -18 -14 -21 -11 -3 -20 -9 -20 -13 0 -9 -50 -31 -59 -26 -9
6 -92 -14 -108 -26 -6 -5 -9 -16 -6 -24 3 -8 -1 -14 -10 -14 -9 0 -19 -10 -23
-22 -10 -33 -91 -106 -144 -130 -25 -11 -64 -34 -88 -50 -25 -17 -47 -26 -55
-21 -6 4 -16 8 -22 8 -5 0 -19 5 -30 12 -16 9 -20 22 -19 61 0 27 7 57 15 66
34 42 69 71 146 123 46 30 85 58 88 63 3 4 17 11 32 15 16 3 37 15 48 24 23
21 92 35 97 20 2 -6 11 -7 21 -4 9 4 15 11 12 15 -6 9 22 29 40 30 6 0 20 -6
31 -14z m5684 -221 c7 -8 23 -15 37 -15 13 0 36 -12 51 -27 38 -39 126 -82
197 -98 6 -2 28 -7 50 -13 22 -6 69 -14 105 -18 36 -4 73 -11 83 -16 11 -5 35
-11 55 -13 23 -2 43 -12 54 -25 13 -16 25 -20 41 -16 31 7 60 -14 82 -63 10
-23 23 -41 29 -41 7 0 19 -13 29 -29 18 -30 53 -47 60 -27 2 6 4 -8 4 -31 0
-36 -2 -40 -14 -27 -8 8 -18 14 -23 14 -5 0 -12 10 -16 22 -9 29 -33 47 -60
48 -12 0 -27 7 -34 15 -10 12 -10 15 1 15 7 0 3 10 -11 25 -13 14 -29 25 -37
25 -16 0 -17 -22 -1 -38 17 -17 0 -28 -22 -14 -11 7 -29 12 -41 12 l-21 0 22
-34 21 -34 -22 -7 c-16 -5 -26 -2 -36 11 -13 18 -14 18 -19 -4 -4 -12 -13 -22
-20 -22 -8 0 -14 -6 -14 -12 0 -7 -13 2 -30 20 -24 28 -35 33 -65 30 -19 -2
-34 -7 -33 -13 2 -5 6 -9 11 -7 4 1 7 -2 7 -8 0 -5 6 -10 13 -10 8 0 23 -10
35 -23 l22 -23 -51 2 c-43 2 -49 1 -38 -12 10 -12 9 -13 -5 -8 -16 6 -18 0
-21 -66 0 -18 -7 -26 -24 -28 -13 -2 -28 1 -34 7 -8 8 -3 11 16 11 27 0 36 13
17 25 -5 3 -10 17 -10 31 0 13 -4 24 -10 24 -5 0 -10 -4 -10 -10 0 -5 -9 -10
-19 -10 -11 0 -23 5 -26 10 -3 6 -17 10 -31 10 -26 0 -31 9 -13 27 9 9 2 16
-26 27 -42 18 -65 20 -65 7 0 -4 -19 -5 -42 0 -62 12 -65 11 -71 -13 l-6 -22
-24 22 c-29 28 -41 28 -27 1 7 -11 9 -23 6 -26 -8 -8 -26 7 -26 23 0 19 -14
18 -31 -2 -12 -14 -14 -13 -21 7 -6 15 -5 25 1 27 6 2 11 8 11 14 0 7 -16 9
-42 5 -24 -2 -37 -3 -30 0 31 12 -6 23 -76 23 -68 0 -81 3 -106 25 -32 28 -22
31 39 14 73 -21 225 -8 225 18 0 9 -6 13 -14 10 -8 -3 -31 -9 -50 -13 -29 -5
-36 -3 -36 10 0 12 10 16 43 16 23 0 59 3 80 6 31 6 36 4 31 -9 -4 -12 4 -17
38 -21 94 -12 115 -15 154 -24 23 -5 55 -19 72 -30 16 -12 37 -22 46 -22 19 0
22 29 4 34 -50 15 -50 15 -34 31 18 19 46 20 46 1 0 -17 22 -26 62 -26 35 0
34 19 -3 37 -13 7 -33 24 -44 37 -14 18 -37 29 -74 36 -30 5 -60 15 -67 21
-23 19 -88 49 -106 49 -27 0 -22 -29 7 -40 16 -6 23 -14 19 -25 -8 -19 -23
-19 -48 0 -11 8 -28 15 -39 15 -10 0 -15 5 -12 10 7 12 -22 26 -33 16 -3 -4 0
-11 8 -16 13 -8 12 -10 -2 -10 -12 0 -18 8 -18 21 0 44 -16 57 -60 49 -22 -4
-40 -5 -40 -1 0 3 -5 -1 -10 -9 -6 -10 -10 -11 -10 -2 0 6 -8 12 -17 12 -10 0
-27 7 -37 15 -16 12 -17 17 -6 30 16 20 23 19 73 -5 39 -20 131 -29 144 -16 4
3 -10 6 -30 6 -20 0 -39 5 -42 10 -3 6 -14 10 -24 10 -10 0 -31 12 -46 26 -15
14 -38 30 -51 34 -26 10 -23 36 4 43 10 3 56 5 103 6 66 1 90 -3 99 -14z
m-6629 -329 c9 -1 24 -10 33 -19 10 -9 22 -17 27 -17 6 0 8 -9 4 -19 -3 -11
-1 -22 4 -25 9 -6 29 -85 36 -146 2 -14 9 -47 14 -74 6 -28 9 -57 6 -65 -2 -9
-7 -41 -9 -71 -14 -164 -19 -193 -37 -197 -14 -4 -17 -14 -15 -56 2 -29 1 -58
-2 -64 -5 -16 -62 -17 -62 -1 0 6 -3 8 -7 4 -4 -4 3 -16 17 -26 31 -23 19 -38
-16 -19 -34 18 -47 50 -28 65 24 19 35 71 18 85 -8 6 -14 28 -14 49 0 26 -5
40 -16 44 -9 4 -14 13 -10 21 6 17 -13 65 -26 65 -4 0 -5 18 -2 40 4 27 3 40
-5 40 -14 0 -14 67 0 76 8 5 7 9 -3 15 -11 6 -13 18 -9 46 4 21 3 62 -1 92 -7
45 -6 55 9 68 17 14 17 14 -4 10 -19 -4 -23 -1 -23 18 0 12 10 35 21 50 19 23
27 26 53 20 17 -4 38 -8 47 -9z m6813 -125 c9 -10 14 -25 10 -34 -5 -15 28
-42 39 -31 3 3 8 -3 11 -14 7 -22 90 -85 100 -75 3 3 4 -8 2 -26 -4 -35 8 -49
28 -32 10 8 20 8 40 -3 l26 -13 -39 -7 c-34 -5 -44 -2 -68 20 -44 41 -109 60
-97 29 7 -18 6 -18 -34 -4 -17 6 -33 17 -36 25 -6 16 -46 19 -46 4 0 -6 -6
-10 -12 -9 -44 5 -48 -12 -5 -18 32 -5 77 -26 77 -37 0 -4 -8 -5 -17 -1 -10 4
-33 9 -51 11 -29 3 -33 1 -27 -14 16 -40 13 -48 -14 -46 -16 0 -27 7 -29 17
-2 10 -7 17 -12 17 -5 0 -11 14 -15 30 -9 41 8 60 56 60 21 0 41 5 45 11 4 7
-12 9 -54 6 -34 -2 -65 0 -70 5 -11 11 -52 -24 -52 -47 0 -12 -6 -16 -20 -12
-11 3 -18 0 -17 -6 1 -6 -10 -12 -25 -13 l-28 -3 22 29 c20 28 20 31 5 48 -9
10 -17 23 -17 28 0 5 4 2 10 -6 8 -12 11 -12 27 2 13 12 31 16 61 13 23 -2 44
1 48 6 4 6 11 6 20 -2 8 -6 24 -9 36 -6 12 4 27 2 33 -3 17 -14 35 3 28 28 -3
12 -9 22 -14 22 -5 0 -9 7 -9 15 0 8 5 15 10 15 6 0 10 6 10 14 0 12 11 19 41
25 3 0 13 -7 23 -18z m-444 -71 c25 0 30 -4 30 -25 0 -24 7 -33 43 -58 15 -10
17 -20 12 -50 -6 -32 -9 -35 -26 -26 -25 13 -26 -7 -2 -33 14 -16 15 -21 3
-28 -20 -13 -21 -40 -1 -40 10 0 26 -8 35 -19 15 -17 15 -20 1 -34 -8 -9 -15
-21 -15 -28 0 -8 -10 -9 -32 -5 -18 4 -51 9 -73 11 -38 5 -37 4 15 -15 30 -10
62 -20 70 -20 21 -1 89 -59 69 -60 -9 0 -19 3 -23 7 -16 16 -72 19 -120 7 -22
-5 -32 -3 -42 10 -10 14 -16 15 -31 5 -27 -16 -90 -4 -98 20 -4 13 -13 16 -34
13 -20 -3 -28 -9 -24 -18 3 -9 -2 -14 -16 -14 -16 0 -21 6 -21 26 0 23 -3 25
-27 20 -15 -4 -29 -3 -33 3 -4 7 -16 7 -38 -1 -17 -7 -34 -9 -38 -6 -9 10 5
28 23 28 8 0 29 6 46 14 18 8 53 16 78 19 26 2 60 11 76 19 26 13 35 13 63 2
18 -8 36 -14 41 -14 14 0 10 30 -3 31 -7 0 -22 3 -33 5 -11 3 -32 6 -48 9 -15
2 -37 11 -49 20 -13 8 -34 15 -48 15 -38 0 -55 14 -36 30 9 7 14 16 11 20 -3
5 -1 12 5 15 15 9 -7 35 -29 35 -9 0 -29 10 -46 21 -28 20 -28 21 -5 14 88
-23 99 -24 141 -12 42 12 44 15 44 50 0 33 -3 37 -24 37 -20 0 -22 3 -13 12 9
9 28 9 84 0 65 -11 73 -11 81 4 9 16 10 16 19 0 5 -9 22 -16 38 -16z m-2498
-33 c54 -54 57 -85 13 -138 -19 -24 -47 -61 -62 -81 -16 -20 -41 -42 -57 -48
-61 -22 -126 -6 -126 30 0 11 -5 20 -12 20 -6 0 -8 3 -5 7 4 3 0 18 -9 31 -27
42 -13 126 28 169 44 47 63 54 134 49 54 -3 65 -7 96 -39z m2018 33 c0 -6 -7
-13 -16 -17 -8 -3 -13 -12 -10 -19 3 -9 -2 -14 -17 -13 -12 0 -34 -3 -49 -7
-22 -5 -28 -3 -28 11 0 15 -1 15 -16 1 -8 -9 -24 -21 -35 -27 -15 -8 -17 -14
-10 -23 8 -9 6 -18 -4 -32 -12 -16 -16 -17 -24 -5 -11 17 -69 25 -85 12 -24
-18 -64 -21 -80 -5 -15 14 -12 18 29 40 26 13 62 24 81 24 18 0 34 4 34 8 0
10 48 25 145 45 89 19 85 19 85 7z m631 -276 c6 -8 19 -14 28 -14 9 0 22 -5
28 -11 6 -6 23 -9 36 -5 19 4 24 11 20 26 -6 24 5 25 44 6 15 -8 55 -27 88
-42 47 -22 135 -92 135 -108 0 -2 -9 -6 -20 -9 -14 -3 -29 3 -45 19 -13 13
-33 24 -45 24 -11 0 -20 3 -20 8 0 4 -25 7 -55 8 -30 0 -55 -4 -55 -8 0 -19
-20 -6 -26 17 -6 25 -26 36 -21 13 1 -8 -11 -14 -29 -16 -34 -3 -80 33 -101
78 -9 22 -8 26 7 27 10 1 24 -5 31 -13z m-5079 -78 c15 -10 26 -22 23 -26 -3
-5 3 -11 14 -15 24 -7 34 -57 25 -124 -4 -34 -10 -48 -19 -45 -7 3 -15 -2 -18
-10 -8 -20 -27 -21 -27 -1 0 12 -5 13 -17 7 -25 -13 -43 -4 -43 21 0 26 -8 38
-35 53 -23 13 -39 110 -20 122 7 4 14 14 17 23 8 21 65 19 100 -5z m8314 -107
c45 -10 92 -19 104 -19 42 0 101 -24 121 -48 10 -14 19 -21 20 -16 0 5 7 -7
14 -26 24 -63 14 -184 -20 -229 -31 -41 -70 -71 -93 -71 -14 0 -40 -5 -58 -12
-25 -9 -45 -9 -86 1 -74 18 -87 19 -139 20 -48 1 -60 13 -73 72 -3 14 -21 45
-41 70 -21 27 -35 55 -35 73 0 30 19 104 31 121 3 6 10 25 14 42 3 18 14 37
23 43 21 13 112 4 218 -21z m-9215 -633 c19 -8 41 -21 50 -28 21 -18 39 -71
29 -89 -4 -8 -10 -33 -13 -57 -2 -24 -8 -47 -13 -52 -22 -20 -154 -63 -195
-65 -40 -1 -52 4 -87 34 -22 20 -42 45 -44 56 -2 11 -9 19 -16 18 -14 -3 -72
82 -63 94 3 6 16 14 29 18 15 4 21 12 18 21 -3 9 -1 12 4 9 6 -3 10 0 10 8 0
44 213 68 291 33z m989 -643 c19 -11 33 -29 37 -46 3 -15 10 -30 14 -33 5 -3
9 -36 9 -75 0 -55 -3 -69 -15 -69 -8 0 -15 -6 -15 -13 0 -14 -35 -47 -49 -47
-5 0 -14 -6 -20 -13 -8 -10 -42 -13 -137 -12 -106 1 -128 4 -139 18 -7 9 -21
17 -31 17 -47 0 -73 100 -37 141 8 9 15 26 16 38 1 13 10 24 24 27 13 4 23 12
23 20 0 8 1 14 3 14 1 0 29 11 62 25 76 31 205 35 255 8z m9758 -1060 c39 -15
49 -29 43 -65 0 -5 3 -8 8 -8 14 0 25 -79 13 -93 -5 -7 -12 -32 -15 -56 -3
-29 -11 -48 -23 -55 -36 -20 -106 -33 -139 -26 -36 8 -90 62 -115 114 -8 17
-18 33 -22 34 -4 2 -8 22 -8 43 0 22 4 38 9 35 10 -7 21 16 21 44 0 25 16 34
75 40 87 10 109 8 153 -7z m-3708 -37 c0 -21 -32 -57 -45 -52 -16 6 -39 -18
-33 -35 2 -7 16 -13 32 -15 17 -2 26 1 23 9 -2 7 -10 12 -18 12 -8 0 -14 5
-14 10 0 6 15 9 34 8 19 -2 32 0 28 3 -8 8 34 54 50 54 9 0 11 -8 8 -22 -3
-13 -7 -33 -8 -45 0 -13 -7 -23 -15 -23 -7 0 -10 -4 -7 -10 3 -5 17 -10 30
-10 13 0 26 -4 30 -10 3 -5 12 -7 20 -3 9 3 22 0 30 -7 8 -6 20 -8 26 -4 7 4
35 8 62 10 32 1 53 7 58 17 13 21 59 10 56 -14 -2 -10 -6 -21 -10 -25 -13 -13
5 -24 39 -24 19 0 33 -4 30 -9 -9 -14 17 -19 39 -8 23 12 75 11 89 -3 10 -10
-33 -31 -46 -23 -5 2 -8 -2 -8 -10 0 -8 8 -18 17 -21 15 -6 15 -8 3 -16 -12
-8 -10 -10 8 -10 12 0 25 7 28 15 9 24 63 45 113 45 l46 -1 -29 -15 c-15 -9
-36 -14 -46 -11 -10 3 -21 -1 -23 -7 -7 -18 69 -20 80 -3 4 8 24 17 43 20 83
13 147 31 172 49 14 10 32 18 40 18 8 0 18 4 23 9 14 12 115 24 115 12 0 -12
-45 -41 -64 -41 -8 0 -16 5 -18 11 -2 7 -12 7 -31 0 -33 -13 -36 -33 -4 -27
13 2 30 0 38 -5 12 -8 12 -10 -1 -19 -8 -5 -23 -10 -32 -10 -10 0 -17 -5 -15
-12 1 -7 -13 -17 -32 -23 -19 -7 -29 -15 -23 -19 12 -7 96 27 106 43 9 14 46
14 46 1 0 -5 -9 -10 -21 -10 -25 0 -83 -46 -69 -55 5 -3 10 -1 10 4 0 6 5 11
11 11 6 0 17 7 25 15 9 8 24 15 35 15 10 0 19 6 19 13 0 7 9 18 20 25 14 9 20
9 20 1 0 -8 5 -8 15 1 13 11 15 10 9 -6 -4 -15 -1 -13 16 6 12 14 18 19 14 11
-5 -9 -3 -12 4 -7 6 4 21 2 33 -4 16 -9 24 -9 33 0 8 8 7 10 -5 5 -10 -4 -19
0 -22 9 -5 11 9 17 64 26 39 7 86 9 105 6 21 -4 34 -3 34 4 0 18 29 11 40 -10
8 -14 8 -20 0 -20 -6 0 -19 -8 -28 -17 -16 -16 -15 -16 8 -9 33 10 234 11 250
1 7 -4 10 -19 6 -36 -4 -22 0 -33 25 -53 17 -14 34 -26 37 -26 4 0 12 -11 19
-25 6 -14 7 -25 3 -25 -5 0 -10 4 -12 10 -1 5 -13 7 -24 4 -18 -5 -20 -9 -10
-29 6 -13 14 -21 17 -19 12 7 72 -53 65 -65 -10 -15 -22 -14 -40 5 -9 8 -20
12 -26 9 -14 -8 -13 -25 1 -25 13 0 49 -38 49 -52 0 -4 -4 -8 -9 -8 -16 0 -21
-44 -7 -55 7 -6 17 -25 20 -43 4 -17 14 -32 21 -32 8 0 17 -9 20 -20 3 -11 11
-20 16 -20 6 0 6 -7 -1 -19 -5 -11 -7 -27 -4 -35 4 -11 1 -16 -10 -16 -9 0
-16 4 -16 9 0 5 -7 11 -15 15 -24 9 -7 -75 19 -96 12 -10 26 -22 32 -27 6 -5
20 -12 31 -15 35 -11 44 -29 29 -57 -11 -21 -11 -29 1 -45 7 -10 11 -25 8 -32
-4 -10 0 -12 12 -8 10 4 14 4 10 0 -4 -4 -2 -13 4 -21 9 -10 7 -13 -7 -14 -11
-1 -26 0 -34 1 -12 2 -12 -2 3 -17 19 -21 23 -38 7 -28 -5 3 -10 -1 -10 -9 0
-9 -8 -16 -17 -16 -15 0 -10 -14 5 -15 4 -1 17 -4 30 -9 28 -10 19 -26 -16
-26 -21 0 -23 -3 -14 -12 7 -7 20 -13 29 -13 9 0 18 -6 20 -13 3 -8 -2 -10
-14 -6 -10 3 -3 -6 15 -21 38 -32 43 -55 6 -30 -34 22 -42 13 -10 -13 14 -10
23 -22 19 -26 -3 -3 -12 -1 -20 6 -7 6 -17 7 -21 3 -4 -4 -2 -10 5 -12 8 -3 9
-12 3 -27 -8 -23 8 -60 33 -77 6 -4 6 -15 2 -25 -13 -30 -14 -44 -3 -44 5 0 8
-12 6 -27 -3 -24 0 -28 20 -25 18 1 22 -2 18 -15 -3 -12 4 -25 19 -36 14 -10
25 -13 25 -7 0 5 -4 10 -9 10 -5 0 -11 7 -14 14 -4 10 -1 13 9 9 8 -3 17 -16
20 -29 3 -13 10 -24 15 -24 5 0 8 -5 7 -12 -2 -6 7 -17 20 -23 37 -20 39 -28
5 -23 l-31 4 38 -45 c44 -54 63 -88 55 -100 -3 -5 1 -11 7 -14 10 -3 10 -7 1
-19 -7 -8 -11 -17 -8 -20 3 -2 7 -35 10 -72 3 -37 11 -79 19 -95 8 -15 13 -37
10 -48 -4 -14 5 -32 26 -56 26 -30 29 -39 20 -57 -7 -12 -7 -20 -1 -20 11 0
71 83 71 98 0 6 4 12 8 14 14 5 89 142 112 204 6 14 16 24 23 22 14 -5 22
-140 11 -198 -5 -31 -7 -33 -17 -15 -6 11 -10 40 -9 64 1 33 -2 41 -10 33 -6
-6 -12 -20 -13 -31 -1 -11 -6 -25 -12 -33 -5 -7 -13 -22 -17 -32 -6 -17 -5
-17 11 -5 13 11 15 11 9 1 -4 -7 -19 -17 -32 -22 -15 -6 -22 -15 -18 -25 4 -9
1 -15 -7 -15 -11 0 -11 -3 1 -10 11 -7 11 -10 2 -10 -7 0 -19 -6 -26 -12 -11
-11 -11 -14 0 -23 17 -12 25 -47 14 -64 -5 -9 -9 -5 -14 13 -6 25 -8 26 -23
11 -12 -12 -13 -19 -4 -28 8 -8 11 -8 11 3 0 7 3 10 6 7 4 -4 1 -13 -6 -22 -7
-9 -8 -15 -2 -15 7 0 7 -10 -1 -30 -10 -28 -26 -40 -28 -22 -4 55 -10 86 -20
98 -15 19 -69 19 -69 0 0 -8 -8 -16 -17 -18 -27 -6 -73 14 -73 32 0 10 -6 7
-19 -10 -11 -13 -18 -27 -16 -30 4 -7 -172 -3 -331 6 -110 6 -135 14 -116 36
9 11 5 18 -21 33 -18 11 -34 20 -37 21 -17 3 -47 19 -62 32 -10 8 -18 11 -18
6 0 -5 -4 -4 -8 1 -12 16 -50 35 -72 35 -11 0 -46 13 -77 29 -85 42 -109 49
-198 56 -75 5 -78 4 -55 -10 25 -15 24 -16 -23 -13 -32 2 -46 -1 -43 -8 3 -7
-7 -10 -27 -7 -61 7 -147 9 -147 3 0 -3 12 -11 28 -16 21 -9 12 -10 -48 -7
-41 2 -90 6 -109 9 -24 5 -32 3 -27 -5 4 -6 16 -11 27 -11 10 0 19 -4 19 -9 0
-8 -32 -12 -130 -15 -34 -1 -48 -6 -55 -21 -6 -11 -19 -20 -30 -21 -54 -2 -66
-5 -62 -11 3 -5 -10 -8 -28 -9 -23 0 -32 3 -28 13 3 7 -1 13 -8 13 -24 0 -40
-16 -34 -32 10 -25 -13 -32 -42 -13 -14 10 -22 11 -18 5 6 -10 1 -11 -21 -6
-23 6 -27 5 -16 -5 21 -22 13 -32 -13 -15 -20 13 -30 14 -46 5 -15 -8 -24 -8
-32 0 -6 6 -21 11 -34 11 -13 0 -23 5 -23 10 0 6 -6 5 -14 -2 -8 -7 -12 -16
-10 -19 8 -15 -24 -28 -64 -26 -53 2 -38 20 17 20 29 0 38 4 34 14 -3 7 -18
13 -35 13 -19 0 -27 -4 -22 -12 5 -8 -2 -9 -25 -5 -23 5 -30 3 -25 -5 5 -8 -2
-9 -22 -4 -16 4 -30 12 -32 17 -2 5 -20 9 -40 8 -32 0 -34 -1 -14 -9 28 -12
29 -24 1 -17 -18 5 -20 2 -14 -22 4 -21 2 -28 -10 -28 -9 0 -14 6 -11 14 7 18
-9 17 -24 -2 -7 -8 -19 -15 -26 -15 -8 0 -14 -5 -14 -11 0 -7 -11 -9 -30 -5
-16 3 -30 2 -30 -2 0 -4 -14 -16 -31 -26 -25 -15 -33 -16 -39 -6 -6 9 -9 6
-12 -11 -2 -18 -10 -25 -31 -27 -15 -2 -25 -7 -22 -12 3 -4 -13 -7 -35 -6 -27
2 -40 -2 -40 -11 0 -7 -8 -14 -17 -14 -24 -2 -25 -2 -47 7 -14 5 -17 4 -12 -5
15 -24 -76 -71 -121 -63 -7 2 -13 -1 -13 -7 0 -5 -18 -8 -40 -8 -22 1 -40 5
-40 10 0 4 -13 7 -30 7 -17 0 -30 5 -31 13 0 9 -2 9 -6 -1 -6 -16 -33 3 -33
24 0 15 -35 28 -50 19 -6 -4 -8 -11 -4 -16 8 -14 -49 1 -58 15 -5 8 -8 7 -8
-2 0 -10 -4 -10 -19 0 -11 7 -17 16 -14 22 3 5 1 6 -6 2 -6 -4 -9 -12 -6 -17
4 -5 -7 -9 -24 -9 -16 0 -32 -4 -35 -9 -7 -10 -45 -3 -64 12 -7 5 -15 7 -19 3
-3 -3 -1 -6 5 -6 7 0 12 -4 12 -9 0 -5 -9 -7 -21 -4 -11 3 -18 11 -15 19 7 17
-15 23 -37 10 -13 -8 -20 -8 -25 0 -4 6 -17 16 -29 23 -13 6 -23 21 -23 31 0
11 -7 20 -16 20 -8 0 -13 -4 -10 -9 3 -5 -1 -12 -10 -15 -25 -10 -34 -7 -34 9
0 8 -6 15 -14 15 -7 0 -28 3 -45 6 -24 5 -31 3 -31 -10 0 -9 -7 -16 -15 -16
-8 0 -15 -4 -15 -8 0 -5 -31 -9 -70 -10 -46 -2 -70 2 -70 9 0 6 7 9 15 5 8 -3
15 0 16 7 0 7 2 8 5 2 5 -13 84 -12 108 2 17 9 13 11 -25 11 -73 0 -153 14
-171 30 -10 8 -18 11 -18 5 0 -7 -15 -8 -42 -2 -28 5 -47 4 -53 -3 -7 -8 -6
-9 3 -4 6 4 12 2 12 -4 0 -6 -8 -10 -17 -8 -10 2 -17 10 -15 16 1 7 -3 12 -9
12 -6 0 -8 -9 -4 -21 5 -16 3 -20 -6 -17 -8 3 -15 10 -15 16 -3 24 -4 26 -16
14 -7 -7 -19 -12 -27 -12 -13 1 -13 3 2 14 11 8 14 17 8 20 -5 4 -12 2 -16 -3
-3 -5 -18 -9 -33 -7 -15 1 -32 -2 -39 -7 -15 -11 -55 1 -47 14 3 5 14 7 25 4
11 -4 19 -2 19 4 0 6 -3 10 -7 10 -5 -1 -10 0 -13 1 -15 5 -70 4 -70 -2 0 -4
-7 -5 -16 -1 -10 4 -14 14 -11 29 2 13 0 24 -4 24 -5 0 -9 -6 -9 -14 0 -19
-30 -15 -52 6 -10 10 -24 15 -31 12 -10 -3 -16 5 -20 25 -5 22 -12 31 -26 31
-11 0 -23 -4 -26 -10 -8 -13 -35 -13 -35 -1 0 5 6 11 13 14 6 2 -1 2 -18 -1
l-30 -4 23 22 c14 13 31 20 43 17 10 -3 16 -1 13 4 -3 6 4 7 19 4 17 -5 26 -2
30 9 5 13 2 15 -18 10 -19 -5 -25 -2 -25 10 0 9 -3 16 -7 16 -14 0 -73 -57
-66 -64 3 -3 1 -6 -5 -6 -7 0 -11 -12 -10 -29 2 -24 8 -30 32 -35 16 -3 27 -9
24 -12 -3 -3 -23 -2 -43 2 -24 4 -33 10 -27 16 11 11 -5 58 -20 58 -4 0 -17 9
-29 21 -15 15 -28 19 -48 14 -21 -4 -30 -2 -34 9 -5 12 0 16 15 16 17 0 19 3
10 12 -7 7 -12 20 -12 29 0 10 -6 20 -12 22 -10 4 -9 8 2 16 12 8 12 13 2 23
-9 9 -15 10 -20 2 -10 -16 -62 -27 -62 -13 0 6 -6 9 -13 6 -7 -3 -19 4 -25 14
-13 20 -4 24 43 19 18 -1 19 0 4 15 -9 9 -30 17 -47 17 -19 1 -32 6 -32 14 0
7 -9 10 -22 7 -21 -4 -22 -3 -5 10 21 17 22 27 2 27 -8 0 -15 -4 -15 -10 0
-15 -77 -12 -83 3 -2 6 -8 9 -12 4 -10 -8 26 -38 37 -31 5 3 8 0 8 -6 0 -7 7
-9 16 -6 10 4 14 1 12 -6 -3 -7 -15 -14 -27 -14 -12 -1 -25 -5 -29 -9 -4 -5 1
-5 11 -2 9 4 17 2 17 -3 0 -6 -13 -10 -29 -10 -16 0 -32 -6 -34 -12 -4 -10 -8
-9 -16 2 -5 8 -7 17 -3 20 8 6 11 19 15 64 1 19 5 32 10 29 4 -2 7 3 7 11 0 9
-3 15 -7 15 -5 -1 -15 -1 -23 0 -12 1 -11 4 3 18 14 15 21 16 37 5 14 -8 19
-9 18 -1 -4 18 39 21 46 3 4 -9 15 -14 30 -12 13 1 33 -6 45 -16 24 -22 28
-11 5 15 -10 11 -12 19 -5 24 6 3 14 -1 17 -9 8 -20 24 -21 24 -1 0 8 5 15 10
15 6 0 10 6 10 14 0 19 -17 29 -32 19 -20 -12 -50 -14 -43 -3 3 5 -3 15 -15
22 -24 15 -26 28 -5 28 8 0 17 11 21 25 4 16 13 25 25 25 10 0 19 5 19 11 0 6
6 9 14 6 14 -5 36 10 36 25 0 4 -7 8 -16 8 -14 0 -14 3 -4 15 7 8 19 15 26 15
19 0 18 16 -2 24 -27 10 -36 7 -30 -11 5 -15 4 -15 -9 1 -13 17 -15 17 -21 3
-3 -10 -15 -17 -26 -17 -16 0 -18 3 -9 14 6 8 25 19 41 26 17 7 30 16 30 21 0
11 -31 -1 -48 -18 -13 -13 -32 -18 -32 -8 0 11 41 45 55 45 23 0 18 13 -20 50
-37 36 -45 56 -19 46 13 -5 14 -1 9 25 -5 22 -4 29 4 25 6 -4 11 -14 11 -22 0
-20 13 -17 28 6 10 17 10 21 -3 26 -26 10 -16 25 13 18 24 -7 26 -6 13 9 -8
10 -13 40 -13 73 0 43 -4 54 -14 50 -8 -3 -14 -1 -14 4 0 6 5 10 11 10 7 0 10
18 7 48 -3 43 -1 48 15 44 20 -5 24 24 5 31 -10 3 -10 8 1 21 12 14 12 16 -3
10 -12 -5 -17 -2 -16 7 1 8 -1 23 -4 34 -9 27 -8 40 4 41 20 3 25 4 39 13 10
7 10 12 -5 30 -10 11 -24 21 -30 21 -9 0 -9 9 -1 35 11 37 27 44 50 20 8 -8
18 -11 23 -7 5 4 2 -1 -5 -11 -11 -14 -11 -23 -2 -43 6 -14 16 -22 21 -19 14
8 8 85 -6 85 -23 0 -86 37 -75 44 7 5 10 13 8 19 -4 14 21 42 31 33 3 -4 2
-10 -4 -14 -13 -9 -16 -52 -2 -52 5 0 12 9 15 21 3 11 11 18 18 15 16 -6 14
17 -4 38 -9 11 -24 14 -48 11 -28 -3 -34 -1 -29 11 3 8 -1 17 -9 20 -8 4 -13
10 -10 15 3 4 11 6 18 4 18 -7 33 6 42 35 7 23 6 24 -7 6 -15 -20 -74 -30 -84
-15 -3 5 5 9 18 9 21 1 22 2 6 14 -10 7 -15 16 -11 19 11 12 88 8 101 -5 19
-19 39 6 22 27 -11 13 -15 13 -22 3 -6 -10 -10 -10 -18 2 -6 9 -13 11 -17 5
-10 -13 -36 -18 -29 -6 4 5 2 12 -4 16 -13 8 -13 45 1 45 5 0 7 -4 4 -10 -3
-5 -1 -18 4 -27 11 -20 14 -12 11 30 -1 19 3 27 14 27 22 0 20 16 -5 33 -20
15 -20 15 5 13 17 0 26 -7 26 -17 0 -23 32 -29 50 -10 8 8 15 28 16 42 1 21
-4 29 -22 33 -13 4 -23 10 -23 14 1 4 1 14 0 22 -1 13 -2 13 -12 0 -8 -12 -10
-12 -7 -1 6 21 38 23 39 3 1 -10 4 -1 8 18 5 26 2 37 -9 42 -8 4 3 7 26 7 22
1 44 -2 48 -6 10 -10 46 -11 46 -1 0 7 -22 12 -41 10 -4 -1 -9 8 -12 18 -3 11
-1 20 4 20 5 0 9 -6 9 -12 0 -9 2 -10 8 -2 7 11 62 12 92 1 8 -3 27 -8 43 -11
23 -5 27 -3 27 15 0 13 5 19 13 16 60 -22 80 -12 34 18 -22 14 -47 54 -47 75
0 6 9 10 20 10 22 0 27 -15 8 -23 -8 -3 -6 -6 5 -6 10 -1 17 6 17 17 1 15 2
14 12 -3 7 -11 17 -26 24 -32 19 -20 24 7 6 35 -8 13 -10 22 -4 22 6 0 14 -9
17 -20 3 -11 17 -23 31 -26 13 -4 31 -16 39 -27 22 -31 31 -12 10 20 -15 22
-7 18 37 -19 30 -26 58 -44 62 -41 3 4 13 -2 21 -13 9 -12 14 -14 15 -6 0 9 7
11 21 7 16 -5 19 -4 14 6 -6 9 -3 11 9 6 10 -4 15 -3 11 3 -3 6 1 10 9 10 8 0
18 -4 21 -10 3 -5 10 -10 16 -10 5 0 9 5 9 10 0 6 -7 10 -15 10 -8 0 -15 7
-15 15 0 7 -8 18 -17 24 -10 5 -14 13 -10 17 4 4 17 -2 30 -12 25 -23 73 -54
83 -54 3 0 4 9 1 20 -4 18 0 16 33 -10 41 -32 50 -36 50 -19 0 5 -4 7 -10 4
-5 -3 -7 0 -4 9 5 13 11 12 45 -6 21 -11 39 -24 39 -28 0 -4 11 -10 25 -12 17
-4 25 -1 25 9 0 10 -6 13 -16 9 -15 -6 -27 1 -65 39 l-20 20 26 3 c19 3 36 -5
54 -22 15 -14 34 -26 43 -26 9 0 19 -4 23 -9 3 -6 13 -9 23 -9 30 1 74 -21 66
-34 -4 -7 -3 -8 5 -4 6 4 18 2 26 -4 9 -8 15 -8 15 -2 0 6 -12 19 -27 30 -36
26 -24 39 14 16 15 -10 30 -21 33 -25 8 -9 50 -18 50 -11 0 4 -17 17 -38 29
-33 19 -35 22 -17 29 11 4 23 12 27 18 5 7 18 -1 37 -21 16 -18 40 -34 53 -37
12 -3 37 -8 53 -11 17 -3 38 -16 47 -28 15 -19 19 -20 28 -7 6 10 10 11 10 3
0 -7 7 -10 16 -6 10 4 22 -1 30 -11 11 -16 13 -16 19 4 4 12 4 24 1 27 -3 4
-6 1 -6 -5 0 -7 -4 -12 -9 -12 -5 0 -7 9 -4 20 3 12 -1 22 -11 26 -9 3 -16 13
-16 21 0 10 6 13 16 9 9 -3 20 -6 26 -6 6 0 8 -9 5 -20 -4 -16 0 -20 17 -20
13 0 31 -12 45 -30 17 -24 27 -29 43 -24 14 4 18 2 14 -5 -4 -6 0 -11 10 -11
12 0 15 6 12 23 -4 21 -1 23 21 19 14 -3 28 -8 31 -13 3 -4 12 -9 19 -11 15
-3 53 -63 54 -85 0 -15 13 -17 22 -3 3 6 1 10 -6 10 -20 0 -4 10 24 16 18 3
29 -1 36 -13 14 -27 25 -8 13 24 -7 19 -11 22 -11 9 -1 -15 -4 -16 -16 -6 -8
7 -15 9 -16 4 -2 -14 -17 39 -18 61 0 19 0 19 13 2 8 -10 21 -19 29 -21 19 -2
47 -31 47 -47 0 -10 3 -10 12 -1 9 9 10 17 2 30 -7 10 -15 32 -19 50 -4 18
-18 40 -31 48 -23 15 -33 35 -16 33 19 -3 33 2 27 10 -3 5 -1 12 4 15 5 3 11
-3 14 -14 9 -33 35 -25 31 10 -3 22 0 30 13 30 8 0 23 8 32 18 9 11 32 21 52
24 28 5 38 2 47 -13 15 -24 39 -25 44 -2 3 16 6 15 26 -5 26 -26 42 -28 42 -7
0 8 -7 15 -15 15 -19 0 -43 42 -26 48 6 2 11 12 11 22 0 18 2 18 35 4 35 -14
35 -14 23 6 -7 11 -20 20 -28 20 -12 1 -11 4 3 15 13 9 17 20 13 33 -4 11 -2
23 4 27 6 3 10 -3 10 -15 0 -12 13 -33 29 -48 31 -28 52 -82 32 -82 -20 0 -12
-15 18 -33 34 -20 50 -22 33 -5 -7 7 -12 20 -12 30 0 15 3 17 19 8 35 -18 45
-12 26 16 -22 34 -13 59 15 44 12 -6 30 -8 40 -5 23 7 27 -14 8 -33 -10 -10
-5 -11 20 -6 25 5 36 2 46 -11 9 -13 15 -15 20 -7 4 7 4 12 -1 12 -4 0 -16 7
-26 14 -14 11 -17 22 -12 50 4 20 10 34 14 32 4 -3 19 8 34 23 19 21 33 27 52
24 14 -3 25 -11 25 -17z m-8004 -835 c-9 -13 21 -33 49 -33 28 0 62 -49 49
-70 -4 -6 -3 -8 4 -5 9 6 25 -131 22 -203 0 -14 4 -72 10 -130 15 -161 21
-281 14 -302 -6 -19 -6 -19 -21 -1 -13 17 -14 16 -9 -12 2 -16 -2 -43 -9 -60
-7 -16 -16 -42 -19 -57 -4 -18 -14 -28 -29 -30 -17 -2 -22 -9 -20 -31 1 -15
-2 -27 -7 -27 -7 0 -17 -67 -21 -137 -1 -13 -7 -23 -15 -23 -8 0 -14 10 -14
23 0 28 -15 51 -28 43 -15 -9 -23 22 -16 62 4 20 3 32 -2 29 -5 -3 -9 23 -9
56 0 34 -3 67 -7 73 -22 31 -29 650 -8 732 14 56 50 112 73 112 10 0 16 -4 13
-9z m506 -127 c7 -9 25 -29 41 -44 15 -16 27 -35 27 -45 0 -9 5 -13 10 -10 6
3 10 1 10 -4 0 -6 -6 -11 -14 -11 -11 0 -12 -8 -4 -37 5 -21 15 -74 23 -118 7
-44 16 -88 20 -99 5 -11 3 -21 -5 -26 -11 -7 -11 -11 -1 -24 9 -10 11 -29 7
-53 -4 -21 -7 -66 -9 -99 -1 -39 -6 -60 -13 -57 -6 2 -11 -17 -12 -51 -1 -53
-11 -81 -41 -118 -11 -14 -11 -21 -2 -32 9 -11 8 -14 -5 -12 -14 1 -17 -8 -18
-46 -1 -51 -16 -80 -16 -30 0 30 -1 31 -35 25 -41 -7 -69 11 -61 40 3 14 0 18
-12 14 -15 -3 -17 2 -14 30 2 18 0 39 -6 46 -8 10 -21 64 -23 94 -1 5 -5 16
-10 26 -6 11 -6 24 2 38 8 15 8 19 0 15 -7 -5 -11 10 -11 46 0 30 -5 59 -12
66 -7 7 -8 15 -1 24 5 7 11 56 12 109 1 53 7 114 12 135 4 22 9 57 9 80 0 51
18 104 35 104 7 0 18 7 25 15 7 9 21 13 31 10 9 -3 20 -1 24 5 9 15 22 12 37
-6z m5269 -1651 c1 -16 1 -34 0 -40 -1 -8 8 -12 24 -11 15 2 24 7 21 14 -3 7
2 15 11 18 10 4 13 2 10 -8 -6 -15 19 -31 27 -17 9 14 56 10 56 -5 0 -21 -231
-23 -238 -3 -2 5 -11 5 -20 0 -9 -4 -42 -7 -72 -6 -30 1 -64 -2 -76 -6 -23 -8
-58 7 -49 22 7 10 -10 12 -41 3 -16 -4 -20 -12 -17 -27 4 -19 3 -20 -6 -5 -7
10 -19 14 -32 11 -15 -4 -27 0 -36 12 -10 14 -16 16 -25 7 -14 -14 -52 4 -42
20 5 8 1 9 -12 4 -37 -15 -52 -14 -58 1 -4 11 -2 13 9 9 8 -3 26 -1 39 4 16 6
32 4 51 -6 21 -11 26 -11 22 -1 -3 9 5 14 27 15 134 7 233 13 246 16 8 2 52 4
98 5 l82 1 1 -27z m3019 12 c0 -8 9 -15 20 -15 11 0 20 -4 20 -10 0 -5 5 -10
10 -10 7 0 7 6 0 19 -12 23 5 40 23 22 8 -8 8 -11 -1 -11 -7 0 -12 -5 -12 -10
0 -6 6 -10 13 -8 6 1 37 -1 67 -6 40 -5 50 -10 40 -17 -12 -8 -9 -9 10 -7 15
2 24 9 22 17 -2 7 11 2 28 -12 24 -20 38 -25 60 -20 19 3 30 1 30 -6 0 -6 7
-11 15 -11 8 0 15 -4 15 -9 0 -5 8 -12 18 -15 24 -8 24 -36 1 -36 -10 0 -55
13 -101 28 -46 16 -102 35 -125 42 -24 7 -43 18 -43 24 0 6 -19 11 -42 12 -24
0 -54 3 -68 6 -14 4 -33 7 -43 7 -15 1 -16 5 -7 21 12 23 50 27 50 5z m128
-156 c14 -10 31 -19 39 -19 8 0 21 -7 30 -15 13 -14 12 -18 -9 -40 -12 -14
-30 -25 -38 -25 -9 0 -21 -5 -27 -11 -17 -17 -86 -20 -106 -5 -19 15 -14 46 9
46 20 0 32 30 24 61 -5 15 -5 30 -2 34 10 10 53 -4 80 -26z m-599 -103 c7 -31
17 -58 22 -61 24 -15 7 -27 -28 -20 -21 5 -48 7 -61 7 -13 -1 -33 4 -45 10
-12 7 -28 11 -34 10 -7 -2 -13 2 -13 8 0 5 7 10 15 10 14 0 19 11 16 36 -1 6
10 16 24 22 14 6 25 16 25 21 0 9 47 20 61 14 3 -1 11 -27 18 -57z m-3810 -62
c2 -123 11 -219 28 -299 2 -11 6 -38 9 -60 9 -66 42 -197 60 -240 10 -22 19
-45 20 -51 1 -7 16 -41 33 -78 49 -101 111 -158 205 -188 34 -10 68 -23 78
-28 15 -8 49 -14 156 -25 34 -3 42 -1 43 13 1 16 2 16 6 0 4 -18 55 -34 73
-23 5 3 10 14 10 24 0 13 -8 17 -37 15 -21 -2 -28 0 -15 2 25 6 30 24 7 24 -8
0 -15 5 -15 11 0 7 10 9 28 5 18 -5 22 -4 13 3 -8 5 -11 16 -8 25 4 9 1 15 -5
13 -7 -1 -17 8 -23 21 -5 12 -15 22 -22 22 -6 0 -15 5 -19 12 -5 7 -2 9 8 5
21 -8 63 37 54 59 -4 12 -13 14 -32 10 -17 -5 -23 -3 -19 4 4 6 1 17 -5 25 -9
11 -9 15 -1 15 6 0 11 -4 11 -10 0 -5 12 -10 26 -10 14 0 23 -4 19 -10 -10
-16 23 -12 50 6 14 9 31 14 39 11 8 -3 13 1 12 11 -1 10 8 18 22 20 12 2 22
-1 22 -7 0 -22 40 -52 58 -43 9 5 77 8 149 8 73 -1 133 2 133 5 0 3 30 6 68 6
93 1 142 5 142 13 0 4 28 10 63 14 34 3 95 17 135 31 41 14 84 25 95 24 14 0
17 -2 7 -6 -8 -2 -24 -8 -35 -13 -11 -4 -29 -12 -40 -16 -19 -7 -19 -8 2 -11
12 -3 31 1 42 6 11 6 37 11 58 11 36 -1 37 -2 19 -15 -14 -11 -16 -15 -5 -15
8 0 23 -7 33 -15 20 -15 20 -15 0 -30 -18 -14 -17 -14 14 -11 26 3 32 0 32
-15 0 -11 -5 -19 -12 -19 -6 0 -3 -9 7 -20 12 -13 25 -18 38 -14 16 5 17 3 8
-15 -10 -17 -19 -20 -54 -17 -23 3 -43 5 -45 5 -1 1 2 10 8 22 11 19 10 20 -9
10 -11 -6 -22 -15 -25 -20 -8 -12 64 -40 94 -38 14 2 29 -2 33 -8 5 -5 6 0 2
11 -4 14 0 24 9 27 10 4 13 1 9 -9 -3 -7 0 -14 5 -14 6 0 13 9 17 19 3 10 15
21 25 24 24 6 26 -6 5 -23 -12 -10 -13 -16 -4 -26 6 -8 9 -15 5 -15 -3 -1 -10
-2 -15 -3 -5 0 -13 -4 -17 -8 -12 -13 -26 -9 -18 5 4 6 3 9 -1 4 -13 -11 -16
-47 -5 -47 6 0 10 4 10 10 0 5 7 7 15 4 8 -4 15 -2 15 4 0 6 9 8 19 5 23 -6
149 53 172 81 13 16 16 16 16 3 0 -8 -20 -26 -44 -38 -23 -12 -43 -25 -43 -29
0 -6 -72 -34 -90 -35 -3 -1 -14 -6 -25 -12 -11 -6 -48 -17 -82 -23 -35 -7 -63
-16 -63 -20 0 -3 -15 -7 -32 -7 -55 0 -131 -11 -161 -22 -16 -6 -32 -9 -37 -6
-4 3 -14 -3 -21 -12 -10 -12 -10 -14 -1 -9 6 4 12 2 12 -3 0 -14 33 -14 47 0
8 8 15 5 26 -11 14 -21 14 -21 20 0 3 11 12 20 20 20 14 0 14 -3 2 -27 -8 -16
-11 -29 -5 -31 16 -6 50 18 50 36 0 15 -2 15 -10 2 -8 -13 -10 -12 -10 3 0 15
7 17 62 12 33 -2 63 -7 66 -10 3 -3 0 -5 -6 -5 -14 0 -15 -19 -3 -39 8 -12 12
-11 27 3 14 15 15 19 3 27 -11 7 -11 9 4 9 9 0 17 6 18 13 0 6 5 1 10 -12 7
-18 6 -27 -3 -33 -10 -6 -10 -8 1 -8 8 0 20 -8 27 -17 10 -13 16 -15 22 -6 13
19 47 9 48 -15 1 -23 -10 -29 -21 -12 -14 22 -36 10 -33 -17 2 -23 -1 -27 -16
-25 -16 3 -18 -1 -13 -32 3 -20 1 -38 -4 -42 -5 -3 -7 -10 -3 -15 9 -16 -26
-49 -53 -49 -12 0 -22 3 -22 8 5 28 -3 32 -22 8 -14 -18 -19 -35 -15 -50 5
-20 2 -23 -19 -23 -14 0 -25 3 -25 7 0 3 -7 7 -15 7 -10 0 -14 -9 -13 -29 2
-25 18 -42 18 -18 0 6 5 10 11 10 18 0 -35 -59 -53 -59 -10 -1 -18 -6 -18 -12
0 -7 -9 -9 -22 -6 -19 4 -20 3 -7 -5 14 -9 13 -15 -4 -49 -22 -45 -30 -50 -21
-13 6 24 5 26 -17 19 -30 -10 -79 -65 -72 -82 3 -7 -2 -13 -11 -13 -12 0 -15
-8 -12 -32 3 -34 -19 -63 -69 -90 -19 -11 -19 -10 -2 9 15 17 16 22 3 32 -12
10 -15 7 -21 -18 -4 -17 -14 -35 -23 -41 -16 -9 -16 -9 0 -10 9 0 20 -5 24
-12 5 -8 2 -9 -9 -5 -9 3 -20 0 -24 -7 -5 -7 -17 -18 -28 -25 -18 -11 -18 -11
5 -5 20 5 22 4 13 -6 -6 -7 -9 -18 -7 -25 3 -6 -2 -18 -11 -25 -13 -11 -15
-10 -10 2 4 9 0 18 -8 21 -11 4 -13 0 -9 -15 4 -18 2 -20 -24 -15 l-29 5 23
-18 c27 -22 20 -50 -13 -50 -13 0 -27 -5 -30 -10 -4 -6 -16 -8 -28 -4 -18 6
-17 3 6 -18 33 -31 33 -36 5 -40 -12 -2 -27 -12 -33 -24 -6 -11 -16 -19 -23
-16 -6 2 -12 -1 -12 -7 0 -6 6 -11 13 -11 6 0 1 -6 -12 -13 -13 -6 -23 -16
-22 -21 2 -5 -3 -12 -11 -17 -7 -5 -13 -14 -13 -21 0 -7 -9 -12 -20 -10 -14 2
-16 0 -7 -6 14 -10 5 -45 -9 -36 -5 3 -12 -8 -15 -25 -4 -20 -11 -28 -20 -24
-17 6 -19 -13 -1 -20 9 -4 9 -7 -1 -15 -7 -5 -10 -15 -7 -23 3 -8 1 -27 -3
-44 -6 -19 -4 -43 3 -65 11 -32 16 -75 17 -152 0 -31 28 -40 29 -10 0 9 2 30
4 45 2 18 -1 30 -11 34 -23 9 -16 21 13 21 14 0 32 7 38 16 14 19 82 36 71 18
-5 -8 -2 -10 8 -6 21 8 20 -5 -1 -28 -9 -10 -12 -18 -7 -18 5 0 18 13 27 30
l18 29 24 -21 c14 -12 25 -31 25 -42 0 -17 2 -18 10 -6 9 13 10 13 11 0 0 -10
3 -8 9 5 7 19 8 19 18 -5 5 -14 8 -36 7 -50 -1 -16 7 -31 22 -43 13 -10 21
-23 18 -28 -4 -5 0 -9 7 -9 8 0 20 -9 28 -20 8 -11 25 -20 37 -20 24 0 31 -14
13 -25 -5 -3 -10 -1 -10 6 0 7 -2 10 -5 7 -3 -3 -2 -13 1 -22 5 -13 9 -14 14
-6 14 23 29 0 24 -38 -2 -20 -2 -31 2 -24 9 20 27 14 21 -7 -6 -24 17 -35 42
-21 21 11 32 4 24 -16 -3 -8 0 -14 6 -14 19 0 12 -42 -7 -47 -31 -8 -13 -73
20 -73 18 0 19 5 14 38 -6 32 -5 34 6 17 12 -19 13 -18 19 10 l7 30 1 -28 c1
-20 7 -31 21 -34 11 -3 20 -10 20 -15 0 -5 5 -6 12 -2 8 5 9 2 3 -12 -4 -10
-7 -29 -6 -41 0 -13 -3 -23 -8 -23 -18 0 -18 -37 0 -49 11 -6 19 -7 19 -2 0 5
9 11 19 14 13 3 23 -3 32 -22 8 -14 20 -32 27 -39 10 -11 12 -11 12 3 0 9 5
13 10 10 6 -4 8 -10 5 -15 -3 -4 2 -13 11 -20 11 -10 12 -15 3 -20 -8 -5 -7
-11 4 -21 9 -9 12 -21 7 -34 -16 -44 -20 -75 -10 -75 5 0 10 14 10 30 0 17 5
30 10 30 6 0 10 -6 10 -14 0 -8 6 -17 13 -19 8 -4 8 -8 2 -14 -5 -4 -11 -14
-13 -22 -3 -12 -1 -12 14 0 13 10 16 11 10 1 -5 -9 -1 -15 13 -19 25 -6 28
-23 5 -23 -12 0 -15 -7 -12 -30 5 -34 -11 -40 -37 -14 -21 22 -30 12 -13 -15
8 -13 20 -20 30 -17 10 2 21 0 24 -5 3 -5 -2 -9 -10 -9 -19 0 -28 -14 -20 -35
9 -23 60 -16 58 8 -2 21 39 25 104 11 15 -3 21 -1 17 6 -3 5 -2 10 4 10 5 0
18 3 28 7 17 6 17 5 -2 -16 -11 -13 -27 -20 -37 -18 -10 3 -18 1 -18 -4 0 -5
5 -9 11 -9 6 0 8 -9 4 -20 -5 -15 -3 -18 8 -14 20 7 32 -15 17 -29 -10 -9 -11
-9 -5 2 5 9 3 12 -6 9 -8 -3 -13 -12 -11 -21 1 -9 -4 -14 -12 -13 -24 3 -32
16 -16 26 12 8 12 10 -4 10 -15 0 -16 3 -7 14 16 19 5 23 -54 15 -27 -3 -43
-7 -36 -7 11 -2 12 -5 4 -13 -13 -13 -36 -3 -28 12 4 5 1 9 -4 9 -6 0 -11 -2
-11 -4 0 -2 -3 -12 -7 -22 -4 -12 -3 -15 6 -10 9 6 9 3 -1 -13 -14 -23 -40
-29 -37 -9 4 31 -2 46 -21 51 -11 3 -20 0 -21 -6 0 -7 -3 -5 -6 3 -3 8 -12 23
-21 33 -14 15 -13 17 4 17 18 1 18 1 2 11 -23 13 -23 39 -2 39 14 0 14 3 4 15
-9 11 -9 15 -1 15 7 0 9 5 6 10 -4 6 -12 4 -21 -5 -9 -8 -21 -15 -27 -14 -9 0
-8 2 1 6 20 8 14 23 -10 23 -12 0 -18 -3 -15 -7 9 -8 -13 -34 -23 -28 -5 3
-12 -5 -16 -17 l-8 -23 -7 25 -7 25 -1 -26 c-1 -30 26 -48 35 -24 4 8 13 15
21 15 8 0 11 5 8 10 -3 6 -1 10 4 10 17 0 13 -9 -14 -42 -33 -38 -28 -52 18
-56 27 -2 42 -11 57 -32 11 -15 20 -33 20 -40 0 -7 6 -10 13 -7 9 3 19 -13 31
-51 9 -32 21 -70 27 -87 5 -18 5 -33 -1 -39 -6 -6 -10 -16 -10 -23 0 -15 36
-18 45 -3 3 6 -1 7 -9 4 -17 -7 -20 4 -8 23 4 7 17 10 30 6 17 -4 21 -11 17
-24 -4 -11 -2 -19 4 -19 6 0 11 12 12 28 0 24 1 25 9 7 13 -31 11 -45 -6 -45
-8 0 -12 -5 -8 -11 3 -6 2 -14 -3 -18 -13 -8 -26 -61 -14 -61 5 0 11 10 14 21
4 16 11 20 23 15 10 -4 21 -1 26 6 5 9 8 7 8 -8 0 -13 -8 -24 -19 -27 -14 -3
-17 -11 -14 -31 3 -14 9 -23 14 -21 4 3 6 12 2 20 -3 11 2 15 17 15 16 0 20 4
16 15 -3 8 0 15 6 15 6 0 8 -11 4 -31 -4 -23 -3 -30 7 -26 9 3 13 -6 14 -29 1
-33 -11 -46 -20 -21 -2 6 -8 9 -12 5 -10 -10 11 -58 25 -58 5 0 10 7 10 15 0
18 20 20 21 3 0 -10 2 -10 6 0 2 6 9 12 15 12 6 0 7 -7 4 -15 -4 -11 3 -19 20
-25 14 -6 22 -15 19 -20 -4 -6 -11 -7 -17 -4 -7 5 -8 2 -2 -7 13 -22 14 -42 1
-58 -10 -12 -6 -13 33 -7 24 4 47 12 51 18 4 5 7 -2 7 -16 0 -14 -4 -23 -9
-21 -4 3 -10 1 -13 -4 -3 -5 2 -12 12 -16 16 -6 15 -8 -3 -21 -19 -14 -18 -15
17 -9 20 4 44 2 55 -4 10 -6 12 -11 6 -11 -7 0 -13 -4 -13 -10 0 -5 7 -7 15
-4 8 4 15 1 15 -6 0 -6 5 -8 10 -5 16 10 40 -14 39 -39 0 -20 -1 -20 -10 2
-10 26 -29 21 -29 -8 0 -21 39 -47 49 -34 9 13 38 11 52 -3 9 -9 7 -11 -9 -6
-17 4 -24 -1 -33 -23 -11 -30 -2 -59 20 -59 6 0 11 -3 11 -7 0 -5 0 -17 0 -28
0 -16 -7 -20 -30 -20 -31 0 -31 0 -13 -23 18 -25 61 -49 67 -39 2 4 2 37 2 74
-1 37 0 65 3 62 3 -3 6 -11 6 -17 0 -7 8 -13 19 -15 11 -2 16 0 12 6 -3 6 -3
13 2 16 4 2 9 -12 10 -32 2 -20 9 -40 17 -45 12 -6 11 -12 -2 -36 -14 -24 -15
-33 -4 -60 8 -17 21 -31 30 -32 11 0 10 -3 -6 -11 -31 -15 -29 -46 2 -58 25
-10 32 -24 16 -34 -7 -5 -8 -23 -2 -43 2 -7 1 -13 -3 -10 -2 1 -13 -7 -25 -17
-26 -24 -27 -16 -1 31 12 22 16 41 11 46 -11 11 -34 0 -27 -12 3 -4 -4 -17
-14 -29 -26 -28 -26 -58 1 -65 12 -3 18 -10 14 -16 -8 -14 25 -14 45 -1 11 8
12 12 3 18 -9 6 -7 11 6 19 28 17 36 -22 10 -48 -23 -23 -24 -30 -4 -23 9 4
15 0 15 -10 0 -18 -4 -19 -37 -10 -13 4 -21 10 -18 14 3 4 -2 10 -10 14 -9 3
-15 0 -15 -9 0 -8 -4 -15 -10 -15 -5 0 -10 9 -10 20 0 17 -6 19 -51 16 -42 -2
-49 -1 -35 9 24 18 19 26 -9 15 -21 -8 -25 -7 -25 8 0 9 7 30 15 45 12 23 12
29 1 33 -8 3 -11 15 -8 30 5 29 -17 34 -25 5 -4 -17 -8 -18 -24 -8 -22 14 -25
27 -6 27 7 0 22 7 33 15 15 12 16 16 5 24 -7 5 -10 14 -7 20 4 6 1 11 -7 11
-18 0 -29 24 -16 37 6 6 -2 10 -23 10 -18 0 -27 -2 -20 -5 6 -2 12 -11 12 -20
0 -13 -2 -14 -9 -3 -7 10 -13 11 -30 2 -20 -11 -21 -10 -16 19 5 26 2 33 -15
37 -17 5 -20 11 -15 34 6 28 4 30 -27 33 -23 2 -37 20 -26 33 15 19 28 16 21
-4 -6 -16 -5 -16 10 -4 15 12 17 12 11 -3 -3 -9 -1 -16 5 -16 13 0 15 66 2 74
-4 3 -16 -3 -26 -14 -21 -23 -45 -15 -45 16 0 12 -10 30 -22 38 -21 15 -21 16
-3 36 16 18 17 20 1 20 -9 0 -19 -7 -22 -15 -11 -27 -23 -16 -19 16 3 24 1 30
-11 25 -20 -8 -94 25 -94 42 0 9 9 7 29 -8 16 -11 32 -16 35 -11 3 5 -2 12
-12 16 -9 3 -17 5 -17 3 0 -2 -8 4 -17 12 -9 8 -13 19 -10 24 3 5 -3 6 -12 3
-14 -5 -17 -3 -13 8 4 8 2 17 -3 20 -5 3 -7 19 -3 35 3 19 1 30 -6 30 -6 0
-11 7 -11 15 0 8 -4 15 -10 15 -5 0 -2 9 7 19 15 18 30 81 16 67 -3 -3 -12 -1
-20 5 -8 8 -13 8 -13 1 0 -6 6 -12 13 -15 6 -2 9 -7 6 -11 -3 -3 -17 -2 -30 3
-13 5 -20 10 -16 10 5 1 5 6 2 11 -5 8 -11 7 -21 -1 -9 -7 -14 -8 -14 -1 0 6
6 12 13 15 9 3 9 7 -2 20 -7 9 -17 14 -22 11 -5 -3 -9 0 -9 5 0 6 2 11 4 11 2
0 11 3 19 6 10 3 17 -2 20 -13 4 -14 5 -13 6 5 0 12 -6 25 -14 28 -8 4 -15 13
-15 21 0 8 -4 11 -10 8 -14 -9 -13 8 2 23 7 7 8 12 2 12 -15 0 -44 -68 -30
-73 8 -3 7 -8 -1 -18 -8 -8 -9 -16 -3 -24 17 -21 -14 -39 -39 -23 -24 15 -24
49 -1 60 12 5 10 8 -7 14 -28 8 -31 24 -3 17 11 -3 27 0 34 7 13 10 12 16 -4
43 -10 17 -16 35 -13 40 3 6 1 7 -5 3 -8 -5 -12 1 -13 16 -1 19 -3 17 -10 -9
-7 -22 -14 -31 -24 -27 -8 4 -15 1 -15 -6 0 -6 -5 -8 -11 -5 -6 4 -1 19 15 40
14 18 22 36 18 40 -4 3 -7 12 -7 18 0 7 -17 12 -43 12 -23 0 -42 3 -42 8 0 4
7 7 15 7 23 0 18 18 -7 22 -19 3 -22 9 -23 47 0 26 -5 46 -12 48 -7 3 -13 -4
-14 -14 0 -10 -3 -13 -6 -6 -3 8 -17 0 -39 -24 -19 -19 -34 -30 -34 -24 0 7
-6 11 -12 10 -28 -3 -37 2 -32 16 5 11 2 13 -10 9 -11 -4 -16 0 -16 14 0 21
-39 75 -40 55 0 -7 -5 -13 -11 -13 -12 0 -38 -29 -39 -43 0 -5 8 -1 17 9 16
16 18 15 28 -17 6 -18 16 -34 23 -37 6 -2 9 -9 6 -17 -3 -7 -1 -16 5 -19 6 -4
8 -13 4 -21 -3 -9 1 -15 11 -15 9 0 16 -4 16 -9 0 -5 -9 -7 -20 -4 -11 3 -20
10 -20 15 0 5 -5 6 -11 2 -9 -5 -10 1 -5 20 5 19 2 28 -9 32 -21 9 -33 -5 -15
-16 18 -11 8 -23 -12 -15 -10 4 -14 15 -12 28 2 12 2 16 -2 10 -9 -21 -24 -15
-24 10 0 33 -16 52 -43 52 -22 1 -24 -1 -14 -22 8 -18 7 -27 -2 -36 -11 -10
-12 -8 -6 11 4 15 2 22 -7 22 -8 0 -23 7 -34 16 -15 13 -16 15 -2 10 14 -4 16
-1 8 18 -5 13 -6 27 -3 30 4 3 0 6 -8 6 -8 0 -20 9 -27 20 -7 12 -17 18 -22
15 -6 -3 -10 3 -10 14 0 26 -9 27 -26 4 -9 -12 -13 -14 -14 -5 0 7 -4 10 -10
7 -5 -3 -10 -1 -10 4 0 6 5 11 10 11 6 0 10 5 10 12 0 6 -3 8 -6 5 -4 -3 -15
5 -26 18 -11 14 -26 25 -34 25 -8 0 -13 3 -12 8 3 17 -16 42 -33 42 -10 0 -19
5 -19 10 0 6 -8 10 -17 10 -16 0 -15 1 1 13 24 18 11 50 -18 41 -18 -6 -19 -5
-7 10 15 18 15 18 -31 18 -20 1 -32 -4 -31 -11 2 -6 -1 -11 -5 -11 -15 0 -22
12 -15 24 4 6 8 16 9 21 1 6 5 18 9 28 6 14 1 17 -26 19 -19 1 -44 1 -56 0
-13 0 -23 3 -23 9 0 5 10 9 23 10 18 0 15 3 -13 15 -19 8 -25 12 -13 10 13 -2
26 0 29 5 3 5 -2 9 -10 9 -9 0 -16 4 -16 8 0 17 12 21 37 11 16 -6 22 -6 18 1
-3 6 1 10 10 10 9 0 13 5 9 11 -4 8 -9 8 -17 0 -15 -15 -40 -14 -31 1 5 8 0 9
-14 6 -14 -4 -22 -1 -22 6 0 17 -24 66 -32 66 -4 0 -21 13 -38 29 -32 29 -44
32 -68 18 -7 -5 -15 -2 -18 8 -6 14 -9 14 -16 3 -6 -8 -8 7 -4 45 6 55 5 57
-18 57 -19 0 -25 6 -28 30 -4 24 -1 30 9 25 10 -3 13 0 8 14 -13 43 -13 100 1
112 18 15 18 33 0 26 -8 -3 -17 1 -20 9 -3 8 -19 14 -40 14 -35 0 -62 19 -29
21 10 0 13 3 6 6 -18 7 -16 23 2 23 8 0 15 3 16 8 4 42 3 72 -4 72 -5 0 -5 5
-2 10 3 6 15 10 25 10 10 0 26 10 34 21 9 13 21 19 30 16 10 -4 16 -1 16 8 0
22 15 18 34 -7 l17 -23 -12 23 c-6 13 -9 25 -7 26 2 1 11 8 21 15 14 11 20 11
32 1 8 -7 15 -9 15 -4 0 5 4 4 8 -2 4 -7 15 -8 27 -3 17 6 17 8 3 8 -10 1 -18
6 -18 12 0 5 -4 7 -10 4 -5 -3 -10 3 -10 14 0 17 -7 21 -32 22 -18 1 -36 1
-40 0 -5 0 -8 5 -8 13 0 9 10 12 30 10 32 -4 50 16 50 55 0 12 5 21 11 21 6 0
8 -9 4 -22 -6 -22 -6 -22 9 -4 16 19 16 19 16 -1 0 -12 -6 -23 -12 -26 -7 -2
-1 -8 14 -12 17 -4 25 -12 21 -21 -3 -8 0 -14 6 -14 6 0 12 8 12 18 3 44 -1
77 -10 80 -15 5 -14 42 2 43 10 0 10 2 0 6 -7 2 -13 13 -13 23 0 10 -6 21 -12
23 -10 4 -10 7 -1 14 14 10 5 27 -19 36 -9 3 -23 -2 -32 -12 -22 -24 -20 -41
3 -36 15 3 19 -2 17 -23 -1 -27 -13 -46 -31 -48 -6 -1 -23 -4 -40 -7 -16 -4
-24 -4 -17 -1 6 3 12 23 12 45 0 23 -4 38 -9 34 -6 -3 -9 4 -8 15 1 23 27 28
27 5 0 -8 4 -15 9 -15 10 0 25 47 22 71 -1 9 7 19 19 22 17 4 20 2 15 -13 -4
-13 1 -19 22 -23 15 -3 35 -1 43 4 11 6 8 8 -12 9 -21 0 -28 5 -28 20 0 19
-25 27 -69 20 -13 -1 -31 17 -31 33 0 4 7 7 15 7 17 0 17 2 9 23 -3 9 -13 13
-25 10 -14 -4 -19 0 -19 16 0 12 -7 24 -15 27 -8 4 -15 11 -15 16 0 6 6 8 14
5 9 -4 16 3 20 16 3 12 1 24 -5 25 -6 3 -5 10 3 20 11 13 10 15 -9 10 -31 -8
-29 10 2 22 24 9 35 30 15 30 -5 0 -10 7 -10 15 0 8 -4 15 -9 15 -5 0 -11 7
-14 14 -4 10 -1 13 8 9 8 -3 33 10 56 28 39 31 40 33 20 41 -19 7 -20 10 -9
28 7 11 19 20 26 20 7 0 10 5 7 10 -3 6 -17 7 -31 4 -14 -4 -24 -2 -24 5 0 6
6 11 13 11 16 0 18 32 3 43 -8 6 -7 10 1 14 10 3 9 11 -2 33 -13 25 -13 29 0
40 12 10 13 16 4 26 -9 11 -8 14 1 14 8 0 11 10 8 30 -3 20 0 30 9 30 16 0 16
0 -2 41 -8 19 -14 27 -15 19 0 -13 -1 -13 -10 0 -5 8 -10 19 -10 23 0 14 35 3
42 -13 5 -12 7 -12 7 3 1 10 9 17 20 17 30 0 41 39 17 62 -17 17 -9 78 10 78
10 0 13 -7 8 -25 -5 -22 -3 -25 20 -25 16 0 26 6 26 14 0 8 8 17 18 22 20 8
20 8 48 0 14 -4 21 -2 21 8 0 8 -3 15 -6 14 -26 -3 -33 4 -27 27 6 22 3 25
-20 25 -26 0 -27 0 -9 -20 16 -18 16 -20 2 -20 -10 0 -17 -7 -17 -15 0 -17
-16 -20 -25 -5 -3 6 -1 10 4 10 6 0 11 5 11 11 0 5 -4 8 -9 5 -5 -4 -7 4 -3
16 5 19 2 21 -31 15 -19 -3 -38 -2 -42 1 -4 4 -16 8 -28 9 -143 15 -258 44
-338 84 -20 10 -52 36 -71 58 -36 42 -95 150 -90 165 1 4 -3 14 -9 22 -6 8 -8
14 -3 14 5 0 4 4 -2 8 -11 7 -68 225 -78 303 -4 25 -9 59 -12 75 -3 16 -8 40
-10 54 -16 85 -16 320 0 320 2 0 4 -47 5 -106z m1670 -32 c13 -10 33 -22 44
-29 58 -33 33 -67 -63 -82 -36 -6 -73 -11 -82 -11 -21 0 -24 30 -6 48 7 7 13
29 14 50 1 20 3 41 3 45 1 12 62 -2 90 -21z m-146 -207 c15 -8 34 -12 43 -8 8
3 23 -2 32 -10 21 -19 62 -18 62 1 0 7 5 10 10 7 6 -3 10 -20 10 -36 0 -17 -4
-28 -9 -24 -5 3 -12 1 -15 -4 -3 -5 -25 -19 -48 -31 -40 -21 -88 -21 -88 0 0
6 -5 10 -11 10 -6 0 -9 -7 -5 -15 4 -11 -2 -15 -24 -15 -17 0 -30 5 -30 10 0
6 6 10 13 8 23 -5 24 27 1 36 -8 3 -12 2 -9 -4 3 -6 -4 -11 -17 -11 -13 -1
-34 -3 -48 -4 -27 -3 -80 23 -80 39 0 5 8 2 18 -6 9 -8 24 -19 32 -23 12 -7
13 -6 3 6 -15 19 -6 59 14 59 8 0 11 4 8 10 -4 6 4 6 21 0 16 -6 30 -7 33 -2
6 9 29 20 46 21 6 1 23 -6 38 -14z m-260 -209 c10 -10 25 -12 55 -6 42 7 74
-1 53 -14 -18 -12 -12 -36 9 -36 11 0 20 -5 20 -11 0 -6 -9 -8 -22 -4 -26 8
-21 8 -73 6 -37 -2 -38 -3 -15 -12 20 -8 22 -12 10 -19 -13 -8 -13 -10 1 -10
9 0 19 -9 22 -20 4 -17 2 -20 -14 -15 -18 6 -20 3 -23 -35 -1 -12 -18 -15 -96
-14 -144 2 -170 10 -170 51 0 15 2 16 10 3 6 -9 13 -11 18 -5 10 14 95 17 103
3 4 -6 14 -8 25 -3 18 8 18 8 2 12 -10 3 -18 9 -18 14 0 5 -7 9 -15 9 -8 0
-15 6 -15 13 0 8 -2 9 -8 1 -8 -13 -36 -4 -39 14 -3 14 13 16 22 2 4 -6 11 -8
16 -5 5 3 19 -3 31 -14 12 -12 29 -21 37 -20 11 0 12 2 4 6 -7 2 -13 11 -13
19 0 22 -36 53 -51 43 -29 -18 -27 4 3 32 25 22 42 29 75 29 23 0 48 -6 56
-14z m242 -1344 c-4 -4 53 -62 60 -62 3 0 5 7 5 16 0 10 6 14 15 10 8 -3 14
-2 14 2 -4 22 4 32 24 31 16 -1 18 -2 5 -6 -10 -2 -18 -10 -18 -17 0 -7 -11
-22 -25 -32 l-25 -19 22 -7 c21 -6 21 -6 -4 -7 -16 -1 -28 -5 -28 -11 0 -5 6
-7 13 -4 8 3 18 -6 24 -19 11 -24 10 -24 -27 -17 -48 9 -60 2 -56 -33 2 -15
-1 -27 -5 -27 -5 0 -9 7 -9 15 0 20 -10 19 -35 -5 -20 -19 -23 -19 -35 -5 -7
9 -13 34 -14 55 -1 40 -16 58 -16 20 0 -13 -7 -20 -20 -20 -13 0 -20 7 -20 18
1 23 26 56 38 48 6 -3 17 5 26 18 12 19 23 24 51 22 19 -2 35 1 35 5 0 5 -12
9 -27 9 -25 1 -26 2 -10 14 9 7 17 19 17 25 0 9 4 8 14 -1 8 -7 12 -15 11 -16z
m2435 -711 c0 -12 -47 -61 -60 -61 -6 0 -8 -5 -5 -10 4 -6 3 -19 -1 -28 -4 -9
-8 -28 -8 -42 -1 -15 -7 -25 -16 -25 -8 0 -21 -4 -27 -8 -7 -5 -17 -6 -22 -2
-5 3 -15 -20 -22 -51 -7 -31 -19 -63 -27 -70 -8 -9 -9 -14 -2 -14 7 0 6 -5 -2
-14 -7 -7 -18 -12 -24 -9 -11 4 -31 -33 -39 -75 -7 -40 -21 -48 -115 -65 -31
-5 -62 -18 -71 -28 -9 -11 -25 -19 -37 -19 -11 0 -22 -6 -25 -13 -2 -7 -17
-13 -33 -15 -15 -1 -35 -8 -43 -16 -9 -7 -63 -28 -121 -46 -137 -43 -123 -41
-212 -43 -43 -1 -78 -5 -78 -10 0 -14 -55 -30 -109 -31 -49 -1 -51 -1 -26 10
l28 11 -41 6 c-22 4 -48 10 -58 14 -12 4 -15 3 -10 -6 13 -20 -13 -42 -43 -35
-14 3 -44 9 -65 12 -32 6 -41 12 -47 34 -5 21 -4 25 7 21 12 -5 13 -1 2 23
-18 43 -24 47 -41 29 -13 -13 -14 -20 -5 -35 7 -11 9 -22 5 -27 -10 -9 -98
-13 -112 -5 -5 4 -13 7 -17 7 -3 0 -20 13 -37 28 -18 16 -37 25 -44 21 -7 -4
-3 2 7 14 11 12 15 22 10 23 -5 0 -1 4 9 8 18 7 18 8 -1 31 l-19 24 -25 -27
c-14 -15 -28 -24 -32 -20 -4 4 -9 -3 -13 -16 -4 -17 -11 -21 -27 -17 -11 3
-31 6 -43 6 -13 0 -23 5 -23 10 0 6 -11 21 -25 34 -27 25 -33 41 -12 31 6 -4
3 1 -8 10 -18 14 -20 27 -18 116 0 55 3 103 6 105 14 14 222 -60 212 -76 -2
-3 13 -6 33 -6 47 -1 148 -22 187 -39 61 -28 364 -21 457 9 23 8 65 17 93 21
27 4 65 13 85 21 19 7 44 15 55 17 11 2 29 8 40 12 92 37 169 66 183 68 9 1
24 7 32 12 24 15 148 75 154 75 12 0 161 73 189 92 15 11 34 17 43 14 9 -4 19
3 26 19 11 24 28 34 28 16z m-4314 -721 c8 0 14 7 14 15 0 8 6 15 14 15 22 0
46 -29 46 -55 0 -34 -27 -135 -41 -151 -6 -7 -10 -26 -9 -41 3 -42 -1 -80 -7
-65 -2 6 -10 12 -16 12 -5 0 -7 -3 -4 -6 3 -4 1 -16 -5 -28 -7 -11 -11 -24
-10 -28 1 -5 -10 -9 -25 -9 -24 -2 -25 -2 -5 -6 12 -2 22 -8 22 -13 0 -5 -10
-11 -22 -13 l-23 -4 23 -8 24 -8 -27 -23 c-15 -13 -33 -21 -39 -18 -6 3 -2 -2
9 -11 16 -13 17 -17 6 -24 -10 -7 -11 -10 -1 -16 10 -6 9 -11 -5 -21 -17 -13
-17 -14 5 -32 17 -14 21 -25 17 -43 -13 -46 -22 -53 -54 -40 -28 11 -70 10
-127 -5 -24 -6 -28 -4 -23 9 3 9 -1 18 -9 21 -20 8 -8 26 17 26 12 0 17 -4 13
-11 -4 -7 -1 -10 7 -7 8 3 13 15 11 27 -3 20 -1 21 17 12 11 -6 28 -10 38 -10
17 1 17 2 1 6 -25 6 -22 22 4 32 20 7 14 11 -37 26 -33 10 -66 17 -73 16 -6
-1 -29 3 -49 8 -25 7 -39 7 -43 0 -5 -6 -15 -6 -33 0 -15 6 -27 7 -27 2 0 -5
-15 -16 -33 -24 -46 -22 -127 -95 -127 -115 0 -8 -3 -12 -7 -9 -7 8 -33 -11
-33 -24 0 -4 9 -11 20 -14 11 -3 20 -11 20 -17 0 -5 -9 -12 -20 -15 -11 -3
-20 -9 -20 -14 0 -5 -9 -9 -20 -9 -11 0 -20 -4 -20 -9 0 -5 -8 -11 -17 -15
-50 -17 -104 -66 -74 -66 6 0 11 -7 11 -15 0 -23 -30 -18 -39 8 -8 19 -10 20
-16 5 -4 -10 -13 -18 -20 -18 -8 0 -16 -9 -20 -19 -3 -10 -15 -21 -25 -24 -24
-6 -26 -30 -3 -48 13 -11 17 -11 21 -1 7 21 32 -6 32 -34 0 -18 -6 -24 -20
-24 -14 0 -20 -6 -18 -17 2 -12 -4 -19 -19 -21 -13 -2 -23 -8 -23 -13 0 -5
-11 -9 -25 -9 -29 0 -34 16 -7 23 13 4 11 5 -5 6 -14 1 -23 -5 -23 -13 0 -7
-9 -16 -21 -19 -12 -3 -18 -10 -14 -16 7 -13 -35 -31 -71 -31 -22 0 -24 3 -18
23 9 30 24 48 35 41 10 -6 12 39 2 49 -3 4 -17 0 -30 -8 -21 -14 -27 -12 -25
6 1 4 -8 5 -18 2 -11 -3 -20 -1 -20 3 0 11 -81 10 -130 -1 -44 -9 -136 -50
-145 -64 -3 -6 -13 -11 -21 -11 -7 0 -37 -17 -66 -37 -37 -27 -50 -33 -45 -19
16 42 54 75 105 91 57 19 117 48 178 89 22 14 55 31 74 37 48 17 134 72 173
112 17 19 38 32 45 29 7 -2 12 5 12 15 0 25 36 64 54 57 7 -3 16 2 19 10 4 9
18 16 32 16 14 0 25 4 25 10 0 5 11 12 25 16 14 3 25 10 25 15 0 5 17 17 39
27 40 20 61 35 89 65 9 9 21 17 27 17 5 0 49 39 96 88 79 80 105 115 101 134
-1 5 7 17 18 28 11 11 20 29 20 40 0 41 82 89 101 58 4 -6 19 4 38 24 30 33
35 35 86 31 44 -3 55 -1 55 12 0 8 7 15 16 15 23 0 69 51 67 75 -1 16 -1 16 3
3 3 -10 12 -18 20 -18z m-698 -786 c8 -14 14 -15 42 -5 37 12 90 -3 90 -26 0
-6 9 -18 19 -25 23 -16 21 -54 -1 -50 -9 1 -18 -4 -22 -13 -3 -8 -10 -15 -17
-15 -6 0 -9 7 -5 15 6 17 -15 20 -30 5 -12 -12 -44 -3 -44 11 0 4 -7 6 -15 3
-8 -4 -22 -1 -30 6 -8 7 -21 10 -28 7 -8 -3 -20 -1 -28 4 -21 14 9 31 32 18
10 -5 26 -9 36 -9 12 1 8 5 -12 14 -28 12 -29 13 -10 25 14 8 16 14 8 17 -15
7 -18 34 -3 34 5 0 13 -7 18 -16z m175 -198 c11 -8 17 -27 17 -50 0 -29 -4
-36 -19 -36 -11 0 -23 -5 -26 -10 -5 -8 -11 -8 -20 0 -19 15 -44 2 -38 -21 4
-15 -5 -23 -43 -40 -27 -11 -67 -21 -89 -21 -22 0 -47 -4 -55 -8 -19 -10 -50
11 -46 32 1 9 7 23 14 31 19 23 -16 32 -40 10 -19 -17 -20 -17 -34 2 -13 17
-13 21 2 32 9 7 20 10 24 8 4 -3 10 4 13 16 5 17 11 19 41 13 22 -4 42 -2 50
5 8 7 25 9 42 5 23 -6 26 -4 21 10 -5 13 1 16 33 16 21 0 42 5 45 10 9 15 87
12 108 -4z m-1673 -996 c0 -6 10 -8 23 -5 12 4 36 1 52 -5 24 -9 31 -8 41 4
10 14 13 13 30 -5 16 -17 16 -22 4 -30 -18 -11 -62 -8 -72 6 -5 6 -12 4 -18
-5 -7 -11 -4 -17 10 -22 12 -4 17 -13 14 -22 -7 -17 44 -31 77 -21 27 9 138
-44 138 -66 1 -24 -131 -80 -143 -61 -3 6 -20 12 -38 16 -18 3 -46 19 -61 36
-16 16 -36 30 -44 30 -11 0 -14 7 -11 25 3 14 2 28 -3 30 -4 3 -5 21 -2 41 4
27 1 38 -13 49 -17 13 -18 14 -1 15 9 0 17 -5 17 -10z m-140 -303 c12 -9 30
-13 39 -10 14 4 14 3 1 -6 -13 -9 -12 -12 8 -17 29 -8 28 -35 -3 -62 -31 -27
-47 -28 -77 -2 -12 11 -33 28 -45 37 -12 10 -24 32 -28 49 l-6 32 45 -3 c24
-2 54 -10 66 -18z"/>
<path d="M3715 12750 c3 -5 0 -8 -7 -5 -10 4 -51 -61 -53 -85 -1 -12 -39 -49
-46 -44 -11 7 -49 -46 -49 -68 0 -11 26 -44 60 -75 33 -31 58 -59 55 -63 -8
-13 50 3 76 21 15 10 29 31 32 46 10 52 17 82 27 108 15 39 12 61 -14 118 -21
46 -28 53 -56 55 -19 1 -29 -2 -25 -8z"/>
<path d="M11043 6637 c-49 -108 -57 -184 -29 -280 22 -78 26 -228 7 -251 -8
-9 -16 -28 -17 -41 -1 -14 -10 -35 -18 -47 -32 -46 -22 -57 47 -53 87 5 151
16 137 25 -7 5 -2 9 14 12 14 3 26 1 26 -5 0 -6 3 -7 7 -4 3 4 -2 16 -12 27
-17 19 -17 20 0 20 10 0 28 12 41 28 27 30 30 42 12 42 -10 0 -9 3 1 9 9 6 12
21 9 45 -2 20 0 36 4 36 4 0 8 5 8 11 0 5 -4 7 -10 4 -5 -3 -10 -2 -10 4 0 5
4 12 9 15 5 4 7 23 5 44 -3 20 -4 52 -4 70 0 25 -3 32 -19 32 -16 0 -19 6 -15
42 2 23 7 51 10 62 5 14 3 18 -9 13 -12 -4 -17 1 -19 21 -2 16 -8 26 -16 24
-8 -1 -16 6 -19 17 -4 17 -36 35 -56 32 -5 -1 -6 3 -2 9 7 11 -18 41 -38 44
-6 1 -17 5 -23 8 -6 4 -15 -2 -21 -15z"/>
<path d="M11115 4420 c3 -5 27 -24 53 -41 26 -18 65 -49 87 -70 22 -20 54 -50
70 -66 27 -25 101 -109 151 -171 11 -13 29 -36 42 -50 12 -15 25 -37 28 -49 4
-13 10 -23 15 -23 5 0 9 -9 9 -20 0 -11 4 -20 9 -20 16 0 41 -59 28 -67 -6 -4
-1 -10 12 -15 18 -6 21 -11 12 -22 -9 -10 -8 -15 4 -20 8 -3 15 -12 15 -21 0
-8 6 -15 13 -15 6 0 4 -5 -5 -11 -22 -12 -24 -31 -3 -23 8 4 15 1 15 -5 0 -6
-4 -11 -9 -11 -5 0 -12 -8 -14 -17 -3 -13 -5 -11 -6 6 -1 16 -5 21 -16 17 -10
-3 -17 3 -21 19 -3 14 -17 28 -32 34 -15 5 -20 10 -11 10 9 1 21 7 27 14 9 10
4 13 -21 13 -18 0 -35 -4 -38 -9 -8 -11 19 -67 32 -67 6 0 8 -4 5 -9 -3 -4 8
-34 24 -65 16 -32 26 -64 23 -72 -3 -9 2 -14 16 -14 17 0 22 -8 27 -40 5 -27
12 -40 23 -41 11 0 10 -3 -6 -11 -31 -15 -29 -28 3 -28 20 0 24 -3 17 -12 -5
-7 -9 -26 -8 -43 1 -16 3 -45 3 -62 1 -18 6 -33 10 -33 5 0 7 14 4 30 -2 17 0
30 6 30 6 0 8 -9 5 -20 -3 -11 0 -20 6 -20 6 0 12 10 12 23 1 16 2 18 6 5 2
-10 9 -18 14 -18 6 0 8 -4 4 -9 -3 -5 -1 -12 4 -16 14 -8 2 -35 -14 -35 -8 0
-15 -7 -17 -16 -2 -11 -16 -18 -43 -20 -22 -3 -53 -6 -69 -7 -17 -2 -32 -9
-34 -16 -2 -7 2 -12 9 -10 28 3 39 -1 39 -16 0 -8 -7 -15 -16 -15 -9 0 -12 5
-8 13 5 7 1 6 -10 -3 -17 -13 -17 -14 0 -20 10 -4 30 -5 44 -3 14 2 37 5 51 7
14 1 32 6 39 11 8 5 11 3 8 -6 -3 -8 -16 -14 -30 -14 -19 0 -24 -4 -21 -16 3
-11 -4 -22 -16 -29 -12 -6 -19 -15 -16 -19 2 -5 -2 -14 -10 -21 -8 -7 -15 -18
-15 -26 0 -7 -8 -13 -17 -13 -86 -2 -222 -15 -213 -21 6 -4 65 -6 130 -4 66 2
121 0 123 -4 9 -15 -13 -52 -31 -52 -10 0 -22 -4 -28 -10 -5 -5 -38 -10 -72
-12 -35 -1 -66 -6 -68 -10 -3 -4 -21 -8 -40 -8 -23 0 -33 4 -28 11 4 7 0 9
-14 5 -15 -5 -20 -3 -18 9 1 9 9 21 17 26 11 7 8 9 -11 10 l-25 1 25 8 c17 5
19 8 8 9 -17 1 -23 13 -19 35 1 5 -6 17 -15 27 -15 16 -15 20 -1 34 19 18 31
20 21 3 -4 -7 -3 -10 1 -5 5 4 9 16 10 27 1 15 -1 17 -11 9 -7 -6 -23 -8 -35
-4 -14 5 -19 4 -15 -4 4 -6 2 -11 -3 -11 -7 0 -9 17 -6 45 4 41 2 45 -17 45
-21 0 -21 0 -2 14 17 13 17 17 6 37 -8 12 -10 24 -5 28 14 10 12 41 -3 41 -7
0 -11 6 -8 14 5 14 -28 56 -44 56 -5 0 -9 6 -9 14 0 8 8 11 19 8 10 -2 18 1
18 7 0 6 -5 11 -11 11 -6 0 -8 9 -4 20 7 23 -5 26 -24 8 -10 -11 -11 -10 -6 3
4 10 0 19 -10 22 -13 6 -13 10 -3 26 9 15 14 17 20 8 5 -8 8 -7 8 5 0 32 -12
48 -37 48 -19 0 -24 4 -19 15 3 9 -1 18 -9 21 -8 4 -13 10 -10 15 10 14 35 -2
35 -23 0 -18 2 -19 16 -7 14 12 14 14 0 25 -9 6 -16 17 -16 23 0 8 -9 10 -22
7 -13 -3 -17 -3 -10 0 13 6 16 32 6 58 -3 9 -10 14 -15 11 -12 -8 -42 54 -36
76 3 12 0 19 -9 19 -8 0 -14 5 -14 11 0 5 4 8 9 4 5 -3 13 0 17 6 5 9 -2 10
-25 6 -18 -4 -30 -3 -26 2 3 5 -1 16 -9 24 -18 18 -11 27 21 27 14 0 21 4 18
10 -3 6 -15 10 -26 10 -10 0 -19 5 -19 10 0 6 9 10 21 10 12 0 19 5 16 13 -2
6 -10 11 -16 9 -7 -1 -21 2 -31 8 -16 9 -18 13 -8 24 7 7 19 11 25 9 16 -6 17
17 1 54 -6 15 -10 34 -9 42 2 9 -4 12 -17 9 -11 -3 -26 -2 -33 3 -10 6 -11 9
-1 9 6 0 12 7 12 15 0 8 -7 15 -15 15 -8 0 -15 -5 -15 -11 0 -5 -4 -8 -9 -5
-5 3 -7 20 -5 37 3 27 1 31 -16 26 -15 -4 -20 0 -20 13 0 28 -19 35 -36 14 -9
-11 -13 -13 -9 -7 4 9 1 11 -10 7 -11 -5 -13 -10 -6 -17 6 -6 3 -16 -10 -30
-11 -12 -19 -35 -19 -53 0 -18 -4 -43 -9 -56 -5 -13 -19 -70 -31 -128 -12 -58
-25 -114 -30 -125 -4 -11 -18 -51 -30 -90 -28 -90 -98 -253 -122 -284 -41 -53
-45 -148 -16 -331 6 -36 11 -78 13 -95 1 -16 10 -61 18 -100 9 -38 18 -90 21
-115 8 -63 15 -100 26 -135 5 -16 10 -65 12 -108 1 -43 6 -81 10 -84 5 -2 6
-20 2 -38 -3 -19 -8 -118 -9 -222 -2 -103 -8 -213 -14 -243 -5 -30 -10 -63
-10 -72 -1 -10 -7 -18 -15 -18 -10 0 -14 -11 -13 -35 1 -19 4 -35 7 -35 6 0 5
-70 -1 -77 -1 -2 -2 -11 -4 -20 -5 -49 -18 -73 -39 -74 -16 -1 -17 -2 -3 -6
18 -5 24 -23 6 -23 -5 0 -7 -5 -4 -10 3 -6 1 -10 -5 -10 -6 0 -8 -4 -5 -10 3
-5 2 -10 -3 -10 -5 0 -8 -21 -7 -46 3 -35 0 -44 -10 -40 -10 4 -12 -3 -8 -28
3 -21 0 -38 -9 -47 -8 -8 -12 -21 -10 -29 5 -13 3 -13 -11 -1 -21 17 -25 8
-30 -65 -5 -63 -11 -73 -40 -67 -20 4 -20 2 7 -20 22 -19 26 -28 18 -43 -5
-11 -7 -25 -5 -31 3 -7 -2 -13 -11 -13 -9 0 -16 5 -16 11 0 5 -4 7 -10 4 -5
-3 -10 -17 -10 -31 0 -16 -4 -23 -11 -18 -8 4 -7 0 0 -15 10 -17 9 -25 -4 -37
-8 -8 -15 -20 -15 -25 0 -6 -4 -8 -8 -5 -5 3 -5 -17 -2 -44 5 -41 4 -48 -7
-38 -12 9 -13 7 -8 -14 5 -18 2 -25 -8 -25 -12 0 -13 7 -6 31 12 41 11 46 -5
40 -7 -3 -17 -24 -20 -47 -5 -31 -9 -38 -16 -27 -8 12 -10 11 -10 -6 0 -12 -7
-27 -15 -34 -17 -14 -20 -50 -4 -50 6 0 9 -7 5 -15 -3 -9 0 -15 9 -15 7 0 17
-4 20 -10 3 -5 0 -7 -8 -4 -14 5 -54 -43 -49 -60 2 -4 -2 -14 -9 -22 -6 -7 -8
-17 -5 -23 3 -5 -2 -12 -11 -15 -9 -4 -20 -2 -23 5 -4 6 -16 8 -27 5 -15 -5
-19 -13 -15 -31 2 -14 9 -22 15 -18 17 10 57 12 57 2 0 -5 -9 -9 -20 -9 -24 0
-60 -37 -54 -55 3 -7 1 -16 -5 -20 -6 -3 -11 -14 -11 -23 0 -9 -14 -30 -31
-48 -17 -18 -32 -44 -32 -58 -3 -34 -27 -44 -27 -10 0 15 -4 23 -10 19 -6 -4
-8 -16 -4 -27 3 -12 2 -18 -3 -15 -18 12 -53 -23 -52 -51 1 -15 -2 -35 -6 -46
-7 -15 -5 -17 13 -11 28 8 28 2 1 -29 -26 -30 -48 -24 -41 10 3 19 0 24 -16
24 -12 0 -23 -9 -27 -20 -3 -11 -11 -20 -16 -20 -6 0 -6 -8 1 -20 8 -15 8 -20
-2 -20 -7 0 -19 -9 -26 -21 -11 -18 -11 -23 4 -34 16 -12 16 -15 -4 -54 l-22
-41 1960 0 1960 0 0 889 c0 702 -3 890 -12 894 -10 4 -10 6 0 6 9 1 12 125 12
585 0 565 -1 585 -19 591 -21 6 -46 58 -36 74 3 6 2 11 -3 11 -15 0 -23 28
-10 36 7 4 8 3 4 -4 -5 -8 4 -12 28 -12 l36 0 0 48 c0 46 -1 48 -47 72 -26 14
-54 31 -61 38 -17 15 -25 15 -39 1 -8 -8 -11 -6 -10 7 1 12 -6 20 -18 22 -25
4 -72 38 -63 47 3 4 16 0 27 -7 18 -11 23 -11 31 2 15 24 12 30 -20 41 -16 6
-30 17 -30 25 0 8 -7 14 -15 14 -8 0 -15 7 -15 15 0 8 -4 15 -10 15 -18 0 -11
20 8 21 9 1 4 5 -13 9 -36 10 -127 49 -175 75 -19 11 -39 19 -45 20 -5 0 -14
10 -20 23 -5 12 -32 34 -60 48 -27 15 -63 43 -80 64 -16 20 -49 52 -73 70 -24
18 -57 53 -73 76 -16 23 -43 52 -59 64 -17 12 -30 27 -30 34 0 11 -41 34 -92
50 -10 3 -15 11 -12 19 4 10 -6 17 -33 21 -54 10 -113 38 -113 53 0 7 -7 13
-15 13 -8 0 -23 4 -33 9 -49 26 -112 52 -124 50 -7 -1 -20 0 -28 4 -71 27
-100 32 -100 17 0 -5 7 -10 15 -10 21 0 19 -28 -2 -33 -14 -4 -12 -5 5 -6 12
-1 22 -7 22 -16 0 -8 9 -15 19 -15 10 0 22 -7 25 -16 4 -10 2 -13 -7 -7 -6 4
-20 9 -30 10 -17 3 -17 2 -3 -13 9 -8 16 -20 16 -25 0 -5 6 -9 14 -9 8 0 16
-10 20 -23 3 -12 14 -32 26 -44 11 -12 20 -27 20 -33 0 -5 4 -10 9 -10 5 0 12
-11 15 -24 3 -13 22 -38 41 -55 19 -17 36 -39 38 -49 2 -11 9 -26 17 -35 30
-33 38 -45 70 -103 18 -32 35 -63 38 -69 13 -21 10 -55 -4 -55 -8 0 -14 7 -14
15 0 8 -7 15 -16 15 -11 0 -15 6 -11 20 6 23 -1 25 -27 5 -17 -13 -17 -17 -5
-32 8 -10 19 -22 26 -28 6 -5 14 -34 18 -63 6 -47 5 -51 -11 -45 -13 5 -16 3
-11 -10 12 -31 -10 -26 -26 6 -8 18 -25 53 -38 80 -12 26 -24 45 -27 42 -3 -2
-24 12 -47 33 -23 20 -72 48 -109 62 -36 14 -66 28 -66 33 0 4 -9 7 -19 7 -11
0 -23 5 -26 11 -4 6 -12 8 -19 6 -7 -3 -27 8 -46 24 -28 24 -31 29 -15 28 35
-2 45 1 45 14 0 8 9 22 21 33 16 15 22 16 29 5 6 -11 10 -9 19 7 19 36 12 60
-15 50 -4 -2 -10 7 -15 20 -5 13 -17 22 -29 22 -11 0 -20 7 -20 15 0 8 -7 15
-15 15 -8 0 -15 -4 -15 -10 0 -5 -7 -10 -16 -10 -11 0 -14 6 -9 20 5 14 2 20
-10 20 -9 0 -14 -4 -10 -9 3 -5 1 -12 -4 -15 -5 -3 -14 8 -20 25 -8 23 -16 30
-29 27 -12 -3 -24 2 -31 14 -7 11 -15 17 -18 14 -11 -11 -43 15 -43 34 0 22
-26 28 -33 8 -2 -7 -13 5 -25 27 -12 22 -21 34 -22 27 0 -10 -5 -10 -20 -2
-11 6 -18 15 -15 20 3 5 0 12 -6 16 -6 3 -15 0 -20 -7 -7 -11 -9 -11 -9 2 0
21 -32 49 -54 49 -10 0 -20 9 -23 20 -7 25 -30 26 -36 3 -3 -15 -6 -14 -14 6
-6 15 -24 30 -44 36 -19 7 -34 17 -34 23 0 19 -16 27 -25 12 -8 -13 -11 -12
-23 4 -8 11 -23 21 -33 22 -52 9 -133 30 -145 39 -8 6 -27 17 -44 25 -16 8
-33 19 -36 24 -4 4 -20 10 -35 12 -16 2 -48 10 -71 18 -24 8 -43 13 -43 9 0
-3 -6 -1 -13 5 -17 15 -100 25 -92 12z m1347 -939 c21 -1 108 -88 108 -108 0
-8 6 -27 14 -41 18 -34 61 -127 77 -167 7 -16 16 -52 20 -80 11 -66 51 -215
66 -240 6 -11 14 -42 18 -70 5 -27 14 -64 21 -82 8 -18 14 -43 14 -56 0 -13 5
-28 11 -34 7 -7 13 -28 15 -49 2 -20 10 -47 19 -60 8 -13 15 -31 15 -40 0 -9
14 -57 31 -108 31 -91 34 -101 49 -166 19 -83 43 -165 49 -170 3 -3 7 -17 8
-31 1 -22 -2 -26 -17 -22 -13 3 -19 14 -19 32 1 40 -5 65 -18 79 -7 7 -13 24
-13 38 0 14 -6 24 -14 24 -13 0 -33 71 -30 107 1 6 -5 9 -14 6 -12 -5 -14 -1
-10 20 3 15 1 27 -4 27 -5 0 -7 9 -3 19 4 12 -1 24 -12 33 -10 7 -20 24 -21
38 -2 14 -8 27 -13 28 -5 2 -9 15 -9 28 0 14 -7 36 -16 49 -9 14 -13 25 -9 25
4 0 3 6 -3 13 -7 8 -10 39 -7 74 4 60 3 62 -30 85 -29 19 -32 24 -17 30 16 6
16 7 0 7 -18 1 -22 9 -18 49 1 16 -4 22 -20 22 -13 0 -20 5 -17 13 2 6 9 12
14 12 6 0 15 4 20 9 4 5 -1 7 -13 4 -14 -4 -25 1 -33 13 -9 15 -8 19 4 19 8 0
15 7 15 15 0 9 -9 15 -24 15 -24 0 -46 32 -27 38 6 2 8 9 4 15 -4 7 -8 19 -8
27 0 9 -7 14 -19 12 -11 -2 -15 1 -11 7 3 6 0 11 -9 11 -19 0 -25 20 -14 49
11 30 4 38 -18 20 -14 -11 -15 -10 -12 11 2 14 9 24 16 23 6 -2 12 2 12 8 0 5
-10 9 -22 7 -15 -2 -24 3 -26 15 -3 16 0 18 20 12 20 -7 21 -6 9 9 -7 9 -20
16 -27 16 -8 0 -17 12 -20 28 -4 15 -14 35 -22 45 -8 9 -11 17 -7 17 5 0 -5
12 -22 28 -36 32 -47 61 -46 122 0 25 -4 48 -11 53 -16 10 8 24 37 21 12 -1
30 -3 39 -3z"/>
<path d="M499 864 c-20 -21 -22 -34 -22 -104 2 -107 10 -139 39 -150 15 -6 22
-15 18 -25 -8 -20 10 -19 27 1 7 9 23 20 35 24 29 11 39 60 12 60 -19 0 -19 1
1 34 26 41 26 46 2 46 -17 0 -19 7 -17 50 2 28 -1 50 -5 50 -4 0 -9 7 -11 16
-5 27 -53 26 -79 -2z"/>
</g>
</svg>
